<?xml version="1.0" encoding="UTF-8" standalone="no"?>
<!DOCTYPE svg PUBLIC "-//W3C//DTD SVG 1.1//EN"
 "http://www.w3.org/Graphics/SVG/1.1/DTD/svg11.dtd">
<!-- Generated by graphviz version 2.30.1 (20180420.1509)
 -->
<!-- Title: snakemake_dag Pages: 1 -->
<svg width="1186pt" height="764pt"
 viewBox="0.00 0.00 1186.00 764.00" xmlns="http://www.w3.org/2000/svg" xmlns:xlink="http://www.w3.org/1999/xlink">
<g id="graph0" class="graph" transform="scale(1 1) rotate(0) translate(4 760)">
<title>snakemake_dag</title>
<polygon fill="white" stroke="white" points="-4,5 -4,-760 1183,-760 1183,5 -4,5"/>
<!-- 0 -->
<g id="node1" class="node"><title>0</title>
<path fill="none" stroke="#56d863" stroke-width="2" d="M506,-36C506,-36 476,-36 476,-36 470,-36 464,-30 464,-24 464,-24 464,-12 464,-12 464,-6 470,-0 476,-0 476,-0 506,-0 506,-0 512,-0 518,-6 518,-12 518,-12 518,-24 518,-24 518,-30 512,-36 506,-36"/>
<text text-anchor="middle" x="491" y="-15.5" font-family="sans" font-size="10.00">all</text>
</g>
<!-- 1 -->
<g id="node2" class="node"><title>1</title>
<path fill="none" stroke="#bed856" stroke-width="2" d="M506,-108C506,-108 476,-108 476,-108 470,-108 464,-102 464,-96 464,-96 464,-84 464,-84 464,-78 470,-72 476,-72 476,-72 506,-72 506,-72 512,-72 518,-78 518,-84 518,-84 518,-96 518,-96 518,-102 512,-108 506,-108"/>
<text text-anchor="middle" x="491" y="-87.5" font-family="sans" font-size="10.00">plotting</text>
</g>
<!-- 1&#45;&gt;0 -->
<g id="edge1" class="edge"><title>1&#45;&gt;0</title>
<path fill="none" stroke="grey" stroke-width="2" d="M491,-71.6966C491,-63.9827 491,-54.7125 491,-46.1124"/>
<polygon fill="grey" stroke="grey" points="494.5,-46.1043 491,-36.1043 487.5,-46.1044 494.5,-46.1043"/>
</g>
<!-- 2 -->
<g id="node3" class="node"><title>2</title>
<path fill="none" stroke="#a7d856" stroke-width="2" d="M860.25,-180C860.25,-180 707.75,-180 707.75,-180 701.75,-180 695.75,-174 695.75,-168 695.75,-168 695.75,-156 695.75,-156 695.75,-150 701.75,-144 707.75,-144 707.75,-144 860.25,-144 860.25,-144 866.25,-144 872.25,-150 872.25,-156 872.25,-156 872.25,-168 872.25,-168 872.25,-174 866.25,-180 860.25,-180"/>
<text text-anchor="middle" x="784" y="-165" font-family="sans" font-size="10.00">calculate_ratio</text>
<text text-anchor="middle" x="784" y="-154" font-family="sans" font-size="10.00">type: gencov.nodup.nm.0.0.norm</text>
</g>
<!-- 2&#45;&gt;1 -->
<g id="edge2" class="edge"><title>2&#45;&gt;1</title>
<path fill="none" stroke="grey" stroke-width="2" d="M712.699,-143.966C654.431,-130.045 574.387,-110.922 528.129,-99.8704"/>
<polygon fill="grey" stroke="grey" points="528.777,-96.4267 518.237,-97.5071 527.15,-103.235 528.777,-96.4267"/>
</g>
<!-- 3 -->
<g id="node4" class="node"><title>3</title>
<path fill="none" stroke="#a7d856" stroke-width="2" d="M665.25,-180C665.25,-180 512.75,-180 512.75,-180 506.75,-180 500.75,-174 500.75,-168 500.75,-168 500.75,-156 500.75,-156 500.75,-150 506.75,-144 512.75,-144 512.75,-144 665.25,-144 665.25,-144 671.25,-144 677.25,-150 677.25,-156 677.25,-156 677.25,-168 677.25,-168 677.25,-174 671.25,-180 665.25,-180"/>
<text text-anchor="middle" x="589" y="-165" font-family="sans" font-size="10.00">calculate_ratio</text>
<text text-anchor="middle" x="589" y="-154" font-family="sans" font-size="10.00">type: gencov.nodup.nm.0.2.norm</text>
</g>
<!-- 3&#45;&gt;1 -->
<g id="edge3" class="edge"><title>3&#45;&gt;1</title>
<path fill="none" stroke="grey" stroke-width="2" d="M565.027,-143.876C552.45,-134.893 536.868,-123.763 523.248,-114.034"/>
<polygon fill="grey" stroke="grey" points="525.237,-111.154 515.066,-108.19 521.169,-116.85 525.237,-111.154"/>
</g>
<!-- 4 -->
<g id="node5" class="node"><title>4</title>
<path fill="none" stroke="#a7d856" stroke-width="2" d="M470.25,-180C470.25,-180 317.75,-180 317.75,-180 311.75,-180 305.75,-174 305.75,-168 305.75,-168 305.75,-156 305.75,-156 305.75,-150 311.75,-144 317.75,-144 317.75,-144 470.25,-144 470.25,-144 476.25,-144 482.25,-150 482.25,-156 482.25,-156 482.25,-168 482.25,-168 482.25,-174 476.25,-180 470.25,-180"/>
<text text-anchor="middle" x="394" y="-165" font-family="sans" font-size="10.00">calculate_ratio</text>
<text text-anchor="middle" x="394" y="-154" font-family="sans" font-size="10.00">type: gencov.nodup.nm.0.4.norm</text>
</g>
<!-- 4&#45;&gt;1 -->
<g id="edge4" class="edge"><title>4&#45;&gt;1</title>
<path fill="none" stroke="grey" stroke-width="2" d="M417.978,-143.697C430.311,-134.796 445.516,-123.823 458.853,-114.199"/>
<polygon fill="grey" stroke="grey" points="461.237,-116.794 467.298,-108.104 457.141,-111.118 461.237,-116.794"/>
</g>
<!-- 5 -->
<g id="node6" class="node"><title>5</title>
<path fill="none" stroke="#a7d856" stroke-width="2" d="M275.25,-180C275.25,-180 174.75,-180 174.75,-180 168.75,-180 162.75,-174 162.75,-168 162.75,-168 162.75,-156 162.75,-156 162.75,-150 168.75,-144 174.75,-144 174.75,-144 275.25,-144 275.25,-144 281.25,-144 287.25,-150 287.25,-156 287.25,-156 287.25,-168 287.25,-168 287.25,-174 281.25,-180 275.25,-180"/>
<text text-anchor="middle" x="225" y="-165" font-family="sans" font-size="10.00">calculate_ratio</text>
<text text-anchor="middle" x="225" y="-154" font-family="sans" font-size="10.00">type: allDiv.bestMatch</text>
</g>
<!-- 5&#45;&gt;1 -->
<g id="edge5" class="edge"><title>5&#45;&gt;1</title>
<path fill="none" stroke="grey" stroke-width="2" d="M287.365,-144.588C339.112,-130.971 410.955,-112.065 454.024,-100.73"/>
<polygon fill="grey" stroke="grey" points="455.023,-104.087 463.803,-98.1572 453.241,-97.3174 455.023,-104.087"/>
</g>
<!-- 6 -->
<g id="node7" class="node"><title>6</title>
<path fill="none" stroke="#56d8d0" stroke-width="2" d="M837.25,-252C837.25,-252 730.75,-252 730.75,-252 724.75,-252 718.75,-246 718.75,-240 718.75,-240 718.75,-228 718.75,-228 718.75,-222 724.75,-216 730.75,-216 730.75,-216 837.25,-216 837.25,-216 843.25,-216 849.25,-222 849.25,-228 849.25,-228 849.25,-240 849.25,-240 849.25,-246 843.25,-252 837.25,-252"/>
<text text-anchor="middle" x="784" y="-237" font-family="sans" font-size="10.00">matchScaffold2Chr_cov</text>
<text text-anchor="middle" x="784" y="-226" font-family="sans" font-size="10.00">ED: 0.0</text>
</g>
<!-- 6&#45;&gt;2 -->
<g id="edge6" class="edge"><title>6&#45;&gt;2</title>
<path fill="none" stroke="grey" stroke-width="2" d="M784,-215.697C784,-207.983 784,-198.712 784,-190.112"/>
<polygon fill="grey" stroke="grey" points="787.5,-190.104 784,-180.104 780.5,-190.104 787.5,-190.104"/>
</g>
<!-- 7 -->
<g id="node8" class="node"><title>7</title>
<path fill="none" stroke="#56d8d0" stroke-width="2" d="M642.25,-252C642.25,-252 535.75,-252 535.75,-252 529.75,-252 523.75,-246 523.75,-240 523.75,-240 523.75,-228 523.75,-228 523.75,-222 529.75,-216 535.75,-216 535.75,-216 642.25,-216 642.25,-216 648.25,-216 654.25,-222 654.25,-228 654.25,-228 654.25,-240 654.25,-240 654.25,-246 648.25,-252 642.25,-252"/>
<text text-anchor="middle" x="589" y="-237" font-family="sans" font-size="10.00">matchScaffold2Chr_cov</text>
<text text-anchor="middle" x="589" y="-226" font-family="sans" font-size="10.00">ED: 0.2</text>
</g>
<!-- 7&#45;&gt;3 -->
<g id="edge7" class="edge"><title>7&#45;&gt;3</title>
<path fill="none" stroke="grey" stroke-width="2" d="M589,-215.697C589,-207.983 589,-198.712 589,-190.112"/>
<polygon fill="grey" stroke="grey" points="592.5,-190.104 589,-180.104 585.5,-190.104 592.5,-190.104"/>
</g>
<!-- 8 -->
<g id="node9" class="node"><title>8</title>
<path fill="none" stroke="#56d8d0" stroke-width="2" d="M447.25,-252C447.25,-252 340.75,-252 340.75,-252 334.75,-252 328.75,-246 328.75,-240 328.75,-240 328.75,-228 328.75,-228 328.75,-222 334.75,-216 340.75,-216 340.75,-216 447.25,-216 447.25,-216 453.25,-216 459.25,-222 459.25,-228 459.25,-228 459.25,-240 459.25,-240 459.25,-246 453.25,-252 447.25,-252"/>
<text text-anchor="middle" x="394" y="-237" font-family="sans" font-size="10.00">matchScaffold2Chr_cov</text>
<text text-anchor="middle" x="394" y="-226" font-family="sans" font-size="10.00">ED: 0.4</text>
</g>
<!-- 8&#45;&gt;4 -->
<g id="edge8" class="edge"><title>8&#45;&gt;4</title>
<path fill="none" stroke="grey" stroke-width="2" d="M394,-215.697C394,-207.983 394,-198.712 394,-190.112"/>
<polygon fill="grey" stroke="grey" points="397.5,-190.104 394,-180.104 390.5,-190.104 397.5,-190.104"/>
</g>
<!-- 9 -->
<g id="node10" class="node"><title>9</title>
<path fill="none" stroke="#d89c56" stroke-width="2" d="M278.25,-252C278.25,-252 171.75,-252 171.75,-252 165.75,-252 159.75,-246 159.75,-240 159.75,-240 159.75,-228 159.75,-228 159.75,-222 165.75,-216 171.75,-216 171.75,-216 278.25,-216 278.25,-216 284.25,-216 290.25,-222 290.25,-228 290.25,-228 290.25,-240 290.25,-240 290.25,-246 284.25,-252 278.25,-252"/>
<text text-anchor="middle" x="225" y="-231.5" font-family="sans" font-size="10.00">matchScaffold2Chr_snp</text>
</g>
<!-- 9&#45;&gt;5 -->
<g id="edge9" class="edge"><title>9&#45;&gt;5</title>
<path fill="none" stroke="grey" stroke-width="2" d="M225,-215.697C225,-207.983 225,-198.712 225,-190.112"/>
<polygon fill="grey" stroke="grey" points="228.5,-190.104 225,-180.104 221.5,-190.104 228.5,-190.104"/>
</g>
<!-- 10 -->
<g id="node11" class="node"><title>10</title>
<path fill="none" stroke="#56d8a2" stroke-width="2" d="M579.25,-324C579.25,-324 494.75,-324 494.75,-324 488.75,-324 482.75,-318 482.75,-312 482.75,-312 482.75,-300 482.75,-300 482.75,-294 488.75,-288 494.75,-288 494.75,-288 579.25,-288 579.25,-288 585.25,-288 591.25,-294 591.25,-300 591.25,-300 591.25,-312 591.25,-312 591.25,-318 585.25,-324 579.25,-324"/>
<text text-anchor="middle" x="537" y="-303.5" font-family="sans" font-size="10.00">matchScaffold2Chr</text>
</g>
<!-- 10&#45;&gt;6 -->
<g id="edge10" class="edge"><title>10&#45;&gt;6</title>
<path fill="none" stroke="grey" stroke-width="2" d="M591.511,-289.552C627.658,-279.307 675.416,-265.773 714.317,-254.748"/>
<polygon fill="grey" stroke="grey" points="715.337,-258.097 724.004,-252.003 713.428,-251.362 715.337,-258.097"/>
</g>
<!-- 10&#45;&gt;7 -->
<g id="edge12" class="edge"><title>10&#45;&gt;7</title>
<path fill="none" stroke="grey" stroke-width="2" d="M549.854,-287.697C556.025,-279.389 563.537,-269.277 570.324,-260.141"/>
<polygon fill="grey" stroke="grey" points="573.14,-262.219 576.294,-252.104 567.521,-258.045 573.14,-262.219"/>
</g>
<!-- 10&#45;&gt;8 -->
<g id="edge14" class="edge"><title>10&#45;&gt;8</title>
<path fill="none" stroke="grey" stroke-width="2" d="M502.018,-287.876C482.802,-278.469 458.774,-266.708 438.263,-256.667"/>
<polygon fill="grey" stroke="grey" points="439.637,-253.443 429.116,-252.19 436.559,-259.73 439.637,-253.443"/>
</g>
<!-- 10&#45;&gt;9 -->
<g id="edge16" class="edge"><title>10&#45;&gt;9</title>
<path fill="none" stroke="grey" stroke-width="2" d="M482.654,-292.807C432.173,-281.481 356.538,-264.512 300.258,-251.885"/>
<polygon fill="grey" stroke="grey" points="300.864,-248.434 290.34,-249.66 299.331,-255.264 300.864,-248.434"/>
</g>
<!-- 11 -->
<g id="node12" class="node"><title>11</title>
<path fill="none" stroke="#d88556" stroke-width="2" d="M1045.25,-324C1045.25,-324 970.75,-324 970.75,-324 964.75,-324 958.75,-318 958.75,-312 958.75,-312 958.75,-300 958.75,-300 958.75,-294 964.75,-288 970.75,-288 970.75,-288 1045.25,-288 1045.25,-288 1051.25,-288 1057.25,-294 1057.25,-300 1057.25,-300 1057.25,-312 1057.25,-312 1057.25,-318 1051.25,-324 1045.25,-324"/>
<text text-anchor="middle" x="1008" y="-309" font-family="sans" font-size="10.00">gencov_bedtools</text>
<text text-anchor="middle" x="1008" y="-298" font-family="sans" font-size="10.00">V: 0.0</text>
</g>
<!-- 11&#45;&gt;6 -->
<g id="edge11" class="edge"><title>11&#45;&gt;6</title>
<path fill="none" stroke="grey" stroke-width="2" d="M958.565,-289.552C926.061,-279.394 883.207,-266.002 848.093,-255.029"/>
<polygon fill="grey" stroke="grey" points="848.998,-251.645 838.41,-252.003 846.91,-258.326 848.998,-251.645"/>
</g>
<!-- 12 -->
<g id="node13" class="node"><title>12</title>
<path fill="none" stroke="#d88556" stroke-width="2" d="M789.25,-324C789.25,-324 714.75,-324 714.75,-324 708.75,-324 702.75,-318 702.75,-312 702.75,-312 702.75,-300 702.75,-300 702.75,-294 708.75,-288 714.75,-288 714.75,-288 789.25,-288 789.25,-288 795.25,-288 801.25,-294 801.25,-300 801.25,-300 801.25,-312 801.25,-312 801.25,-318 795.25,-324 789.25,-324"/>
<text text-anchor="middle" x="752" y="-309" font-family="sans" font-size="10.00">gencov_bedtools</text>
<text text-anchor="middle" x="752" y="-298" font-family="sans" font-size="10.00">V: 0.2</text>
</g>
<!-- 12&#45;&gt;7 -->
<g id="edge13" class="edge"><title>12&#45;&gt;7</title>
<path fill="none" stroke="grey" stroke-width="2" d="M712.126,-287.876C689.843,-278.307 661.885,-266.3 638.244,-256.148"/>
<polygon fill="grey" stroke="grey" points="639.314,-252.798 628.745,-252.068 636.552,-259.23 639.314,-252.798"/>
</g>
<!-- 13 -->
<g id="node14" class="node"><title>13</title>
<path fill="none" stroke="#d88556" stroke-width="2" d="M400.25,-324C400.25,-324 325.75,-324 325.75,-324 319.75,-324 313.75,-318 313.75,-312 313.75,-312 313.75,-300 313.75,-300 313.75,-294 319.75,-288 325.75,-288 325.75,-288 400.25,-288 400.25,-288 406.25,-288 412.25,-294 412.25,-300 412.25,-300 412.25,-312 412.25,-312 412.25,-318 406.25,-324 400.25,-324"/>
<text text-anchor="middle" x="363" y="-309" font-family="sans" font-size="10.00">gencov_bedtools</text>
<text text-anchor="middle" x="363" y="-298" font-family="sans" font-size="10.00">V: 0.4</text>
</g>
<!-- 13&#45;&gt;8 -->
<g id="edge15" class="edge"><title>13&#45;&gt;8</title>
<path fill="none" stroke="grey" stroke-width="2" d="M370.663,-287.697C374.192,-279.728 378.456,-270.1 382.369,-261.264"/>
<polygon fill="grey" stroke="grey" points="385.576,-262.665 386.425,-252.104 379.176,-259.831 385.576,-262.665"/>
</g>
<!-- 14 -->
<g id="node15" class="node"><title>14</title>
<path fill="none" stroke="#566bd8" stroke-width="2" d="M283.25,-324C283.25,-324 166.75,-324 166.75,-324 160.75,-324 154.75,-318 154.75,-312 154.75,-312 154.75,-300 154.75,-300 154.75,-294 160.75,-288 166.75,-288 166.75,-288 283.25,-288 283.25,-288 289.25,-288 295.25,-294 295.25,-300 295.25,-300 295.25,-312 295.25,-312 295.25,-318 289.25,-324 283.25,-324"/>
<text text-anchor="middle" x="225" y="-303.5" font-family="sans" font-size="10.00">vcftools_alleleDiv_hetero</text>
</g>
<!-- 14&#45;&gt;9 -->
<g id="edge17" class="edge"><title>14&#45;&gt;9</title>
<path fill="none" stroke="grey" stroke-width="2" d="M225,-287.697C225,-279.983 225,-270.712 225,-262.112"/>
<polygon fill="grey" stroke="grey" points="228.5,-262.104 225,-252.104 221.5,-262.104 228.5,-262.104"/>
</g>
<!-- 15 -->
<g id="node16" class="node"><title>15</title>
<path fill="none" stroke="#61d856" stroke-width="2" d="M124.25,-324C124.25,-324 11.75,-324 11.75,-324 5.75,-324 -0.25,-318 -0.25,-312 -0.25,-312 -0.25,-300 -0.25,-300 -0.25,-294 5.75,-288 11.75,-288 11.75,-288 124.25,-288 124.25,-288 130.25,-288 136.25,-294 136.25,-300 136.25,-300 136.25,-312 136.25,-312 136.25,-318 130.25,-324 124.25,-324"/>
<text text-anchor="middle" x="68" y="-303.5" font-family="sans" font-size="10.00">vcftools_alleleDiv_homo</text>
</g>
<!-- 15&#45;&gt;9 -->
<g id="edge18" class="edge"><title>15&#45;&gt;9</title>
<path fill="none" stroke="grey" stroke-width="2" d="M106.407,-287.876C127.869,-278.307 154.798,-266.3 177.568,-256.148"/>
<polygon fill="grey" stroke="grey" points="179.01,-259.337 186.718,-252.068 176.16,-252.944 179.01,-259.337"/>
</g>
<!-- 16 -->
<g id="node17" class="node"><title>16</title>
<path fill="none" stroke="#56d87b" stroke-width="2" d="M654,-396C654,-396 572,-396 572,-396 566,-396 560,-390 560,-384 560,-384 560,-372 560,-372 560,-366 566,-360 572,-360 572,-360 654,-360 654,-360 660,-360 666,-366 666,-372 666,-372 666,-384 666,-384 666,-390 660,-396 654,-396"/>
<text text-anchor="middle" x="613" y="-375.5" font-family="sans" font-size="10.00">maf_convert_syns</text>
</g>
<!-- 16&#45;&gt;10 -->
<g id="edge19" class="edge"><title>16&#45;&gt;10</title>
<path fill="none" stroke="grey" stroke-width="2" d="M594.213,-359.697C584.826,-351.05 573.316,-340.449 563.087,-331.027"/>
<polygon fill="grey" stroke="grey" points="565.297,-328.305 555.57,-324.104 560.555,-333.454 565.297,-328.305"/>
</g>
<!-- 17 -->
<g id="node18" class="node"><title>17</title>
<path fill="none" stroke="#78d856" stroke-width="2" d="M529.25,-396C529.25,-396 428.75,-396 428.75,-396 422.75,-396 416.75,-390 416.75,-384 416.75,-384 416.75,-372 416.75,-372 416.75,-366 422.75,-360 428.75,-360 428.75,-360 529.25,-360 529.25,-360 535.25,-360 541.25,-366 541.25,-372 541.25,-372 541.25,-384 541.25,-384 541.25,-390 535.25,-396 529.25,-396"/>
<text text-anchor="middle" x="479" y="-375.5" font-family="sans" font-size="10.00">gencov_prepare_fasta</text>
</g>
<!-- 17&#45;&gt;10 -->
<g id="edge20" class="edge"><title>17&#45;&gt;10</title>
<path fill="none" stroke="grey" stroke-width="2" d="M493.337,-359.697C500.291,-351.305 508.77,-341.07 516.401,-331.861"/>
<polygon fill="grey" stroke="grey" points="519.143,-334.038 522.828,-324.104 513.753,-329.571 519.143,-334.038"/>
</g>
<!-- 17&#45;&gt;11 -->
<g id="edge25" class="edge"><title>17&#45;&gt;11</title>
<path fill="none" stroke="grey" stroke-width="2" d="M541.349,-361.81C544.606,-361.163 547.837,-360.555 551,-360 692.7,-335.142 861.235,-319.027 948.696,-311.657"/>
<polygon fill="grey" stroke="grey" points="949.023,-315.142 958.697,-310.823 948.441,-308.166 949.023,-315.142"/>
</g>
<!-- 17&#45;&gt;12 -->
<g id="edge30" class="edge"><title>17&#45;&gt;12</title>
<path fill="none" stroke="grey" stroke-width="2" d="M541.29,-361.028C586.79,-349.361 648.097,-333.642 692.848,-322.167"/>
<polygon fill="grey" stroke="grey" points="693.886,-325.514 702.703,-319.64 692.147,-318.734 693.886,-325.514"/>
</g>
<!-- 17&#45;&gt;13 -->
<g id="edge35" class="edge"><title>17&#45;&gt;13</title>
<path fill="none" stroke="grey" stroke-width="2" d="M450.623,-359.876C435.456,-350.724 416.595,-339.342 400.261,-329.485"/>
<polygon fill="grey" stroke="grey" points="401.856,-326.36 391.486,-324.19 398.239,-332.353 401.856,-326.36"/>
</g>
<!-- 18 -->
<g id="node19" class="node"><title>18</title>
<path fill="none" stroke="#56d8b9" stroke-width="2" d="M1116,-468C1116,-468 1048,-468 1048,-468 1042,-468 1036,-462 1036,-456 1036,-456 1036,-444 1036,-444 1036,-438 1042,-432 1048,-432 1048,-432 1116,-432 1116,-432 1122,-432 1128,-438 1128,-444 1128,-444 1128,-456 1128,-456 1128,-462 1122,-468 1116,-468"/>
<text text-anchor="middle" x="1082" y="-453" font-family="sans" font-size="10.00">mismatch_bam</text>
<text text-anchor="middle" x="1082" y="-442" font-family="sans" font-size="10.00">ED: 0</text>
</g>
<!-- 18&#45;&gt;11 -->
<g id="edge21" class="edge"><title>18&#45;&gt;11</title>
<path fill="none" stroke="grey" stroke-width="2" d="M1073.54,-431.853C1064.61,-413.869 1050.06,-384.822 1037,-360 1032.34,-351.139 1027.12,-341.516 1022.41,-332.931"/>
<polygon fill="grey" stroke="grey" points="1025.44,-331.178 1017.55,-324.11 1019.31,-334.557 1025.44,-331.178"/>
</g>
<!-- 19 -->
<g id="node20" class="node"><title>19</title>
<path fill="none" stroke="#56b1d8" stroke-width="2" d="M1165.25,-396C1165.25,-396 1118.75,-396 1118.75,-396 1112.75,-396 1106.75,-390 1106.75,-384 1106.75,-384 1106.75,-372 1106.75,-372 1106.75,-366 1112.75,-360 1118.75,-360 1118.75,-360 1165.25,-360 1165.25,-360 1171.25,-360 1177.25,-366 1177.25,-372 1177.25,-372 1177.25,-384 1177.25,-384 1177.25,-390 1171.25,-396 1165.25,-396"/>
<text text-anchor="middle" x="1142" y="-381" font-family="sans" font-size="10.00">index_bam</text>
<text text-anchor="middle" x="1142" y="-370" font-family="sans" font-size="10.00">ED: 0.0</text>
</g>
<!-- 18&#45;&gt;19 -->
<g id="edge41" class="edge"><title>18&#45;&gt;19</title>
<path fill="none" stroke="grey" stroke-width="2" d="M1096.83,-431.697C1104.02,-423.305 1112.8,-413.07 1120.69,-403.861"/>
<polygon fill="grey" stroke="grey" points="1123.49,-405.975 1127.34,-396.104 1118.17,-401.419 1123.49,-405.975"/>
</g>
<!-- 19&#45;&gt;11 -->
<g id="edge22" class="edge"><title>19&#45;&gt;11</title>
<path fill="none" stroke="grey" stroke-width="2" d="M1109.22,-359.876C1091.37,-350.554 1069.1,-338.919 1050,-328.939"/>
<polygon fill="grey" stroke="grey" points="1051.39,-325.718 1040.91,-324.19 1048.15,-331.922 1051.39,-325.718"/>
</g>
<!-- 20 -->
<g id="node21" class="node"><title>20</title>
<path fill="none" stroke="#56d8b9" stroke-width="2" d="M1006,-468C1006,-468 938,-468 938,-468 932,-468 926,-462 926,-456 926,-456 926,-444 926,-444 926,-438 932,-432 938,-432 938,-432 1006,-432 1006,-432 1012,-432 1018,-438 1018,-444 1018,-444 1018,-456 1018,-456 1018,-462 1012,-468 1006,-468"/>
<text text-anchor="middle" x="972" y="-453" font-family="sans" font-size="10.00">mismatch_bam</text>
<text text-anchor="middle" x="972" y="-442" font-family="sans" font-size="10.00">ED: 0</text>
</g>
<!-- 20&#45;&gt;11 -->
<g id="edge23" class="edge"><title>20&#45;&gt;11</title>
<path fill="none" stroke="grey" stroke-width="2" d="M993.71,-431.787C1003.76,-422.414 1014.64,-409.9 1020,-396 1027.68,-376.085 1023.71,-352.019 1018.36,-333.937"/>
<polygon fill="grey" stroke="grey" points="1021.65,-332.734 1015.22,-324.315 1015,-334.907 1021.65,-332.734"/>
</g>
<!-- 21 -->
<g id="node22" class="node"><title>21</title>
<path fill="none" stroke="#56b1d8" stroke-width="2" d="M999.25,-396C999.25,-396 952.75,-396 952.75,-396 946.75,-396 940.75,-390 940.75,-384 940.75,-384 940.75,-372 940.75,-372 940.75,-366 946.75,-360 952.75,-360 952.75,-360 999.25,-360 999.25,-360 1005.25,-360 1011.25,-366 1011.25,-372 1011.25,-372 1011.25,-384 1011.25,-384 1011.25,-390 1005.25,-396 999.25,-396"/>
<text text-anchor="middle" x="976" y="-381" font-family="sans" font-size="10.00">index_bam</text>
<text text-anchor="middle" x="976" y="-370" font-family="sans" font-size="10.00">ED: 0.0</text>
</g>
<!-- 20&#45;&gt;21 -->
<g id="edge43" class="edge"><title>20&#45;&gt;21</title>
<path fill="none" stroke="grey" stroke-width="2" d="M972.989,-431.697C973.43,-423.983 973.959,-414.712 974.451,-406.112"/>
<polygon fill="grey" stroke="grey" points="977.946,-406.288 975.023,-396.104 970.958,-405.888 977.946,-406.288"/>
</g>
<!-- 21&#45;&gt;11 -->
<g id="edge24" class="edge"><title>21&#45;&gt;11</title>
<path fill="none" stroke="grey" stroke-width="2" d="M983.91,-359.697C987.553,-351.728 991.954,-342.1 995.994,-333.264"/>
<polygon fill="grey" stroke="grey" points="999.206,-334.654 1000.18,-324.104 992.84,-331.744 999.206,-334.654"/>
</g>
<!-- 22 -->
<g id="node23" class="node"><title>22</title>
<path fill="none" stroke="#56d8b9" stroke-width="2" d="M884,-468C884,-468 816,-468 816,-468 810,-468 804,-462 804,-456 804,-456 804,-444 804,-444 804,-438 810,-432 816,-432 816,-432 884,-432 884,-432 890,-432 896,-438 896,-444 896,-444 896,-456 896,-456 896,-462 890,-468 884,-468"/>
<text text-anchor="middle" x="850" y="-453" font-family="sans" font-size="10.00">mismatch_bam</text>
<text text-anchor="middle" x="850" y="-442" font-family="sans" font-size="10.00">ED: 2</text>
</g>
<!-- 22&#45;&gt;12 -->
<g id="edge26" class="edge"><title>22&#45;&gt;12</title>
<path fill="none" stroke="grey" stroke-width="2" d="M868.544,-431.711C886.209,-413.097 907.924,-383.055 892,-360 873.821,-333.679 840.758,-320.417 811.327,-313.74"/>
<polygon fill="grey" stroke="grey" points="812.013,-310.308 801.513,-311.719 810.601,-317.164 812.013,-310.308"/>
</g>
<!-- 23 -->
<g id="node24" class="node"><title>23</title>
<path fill="none" stroke="#56b1d8" stroke-width="2" d="M871.25,-396C871.25,-396 824.75,-396 824.75,-396 818.75,-396 812.75,-390 812.75,-384 812.75,-384 812.75,-372 812.75,-372 812.75,-366 818.75,-360 824.75,-360 824.75,-360 871.25,-360 871.25,-360 877.25,-360 883.25,-366 883.25,-372 883.25,-372 883.25,-384 883.25,-384 883.25,-390 877.25,-396 871.25,-396"/>
<text text-anchor="middle" x="848" y="-381" font-family="sans" font-size="10.00">index_bam</text>
<text text-anchor="middle" x="848" y="-370" font-family="sans" font-size="10.00">ED: 0.2</text>
</g>
<!-- 22&#45;&gt;23 -->
<g id="edge45" class="edge"><title>22&#45;&gt;23</title>
<path fill="none" stroke="grey" stroke-width="2" d="M849.506,-431.697C849.285,-423.983 849.02,-414.712 848.775,-406.112"/>
<polygon fill="grey" stroke="grey" points="852.273,-406 848.489,-396.104 845.276,-406.2 852.273,-406"/>
</g>
<!-- 23&#45;&gt;12 -->
<g id="edge27" class="edge"><title>23&#45;&gt;12</title>
<path fill="none" stroke="grey" stroke-width="2" d="M824.27,-359.697C812.063,-350.796 797.015,-339.823 783.816,-330.199"/>
<polygon fill="grey" stroke="grey" points="785.6,-327.168 775.457,-324.104 781.475,-332.824 785.6,-327.168"/>
</g>
<!-- 24 -->
<g id="node25" class="node"><title>24</title>
<path fill="none" stroke="#56d8b9" stroke-width="2" d="M754,-468C754,-468 686,-468 686,-468 680,-468 674,-462 674,-456 674,-456 674,-444 674,-444 674,-438 680,-432 686,-432 686,-432 754,-432 754,-432 760,-432 766,-438 766,-444 766,-444 766,-456 766,-456 766,-462 760,-468 754,-468"/>
<text text-anchor="middle" x="720" y="-453" font-family="sans" font-size="10.00">mismatch_bam</text>
<text text-anchor="middle" x="720" y="-442" font-family="sans" font-size="10.00">ED: 2</text>
</g>
<!-- 24&#45;&gt;12 -->
<g id="edge28" class="edge"><title>24&#45;&gt;12</title>
<path fill="none" stroke="grey" stroke-width="2" d="M739.474,-431.918C748.821,-422.403 759.046,-409.723 764,-396 771.247,-375.925 767.312,-351.87 762.082,-333.832"/>
<polygon fill="grey" stroke="grey" points="765.394,-332.699 759.017,-324.239 758.726,-334.83 765.394,-332.699"/>
</g>
<!-- 25 -->
<g id="node26" class="node"><title>25</title>
<path fill="none" stroke="#56b1d8" stroke-width="2" d="M743.25,-396C743.25,-396 696.75,-396 696.75,-396 690.75,-396 684.75,-390 684.75,-384 684.75,-384 684.75,-372 684.75,-372 684.75,-366 690.75,-360 696.75,-360 696.75,-360 743.25,-360 743.25,-360 749.25,-360 755.25,-366 755.25,-372 755.25,-372 755.25,-384 755.25,-384 755.25,-390 749.25,-396 743.25,-396"/>
<text text-anchor="middle" x="720" y="-381" font-family="sans" font-size="10.00">index_bam</text>
<text text-anchor="middle" x="720" y="-370" font-family="sans" font-size="10.00">ED: 0.2</text>
</g>
<!-- 24&#45;&gt;25 -->
<g id="edge47" class="edge"><title>24&#45;&gt;25</title>
<path fill="none" stroke="grey" stroke-width="2" d="M720,-431.697C720,-423.983 720,-414.712 720,-406.112"/>
<polygon fill="grey" stroke="grey" points="723.5,-406.104 720,-396.104 716.5,-406.104 723.5,-406.104"/>
</g>
<!-- 25&#45;&gt;12 -->
<g id="edge29" class="edge"><title>25&#45;&gt;12</title>
<path fill="none" stroke="grey" stroke-width="2" d="M727.91,-359.697C731.553,-351.728 735.954,-342.1 739.994,-333.264"/>
<polygon fill="grey" stroke="grey" points="743.206,-334.654 744.181,-324.104 736.84,-331.744 743.206,-334.654"/>
</g>
<!-- 26 -->
<g id="node27" class="node"><title>26</title>
<path fill="none" stroke="#56d8b9" stroke-width="2" d="M413,-468C413,-468 345,-468 345,-468 339,-468 333,-462 333,-456 333,-456 333,-444 333,-444 333,-438 339,-432 345,-432 345,-432 413,-432 413,-432 419,-432 425,-438 425,-444 425,-444 425,-456 425,-456 425,-462 419,-468 413,-468"/>
<text text-anchor="middle" x="379" y="-453" font-family="sans" font-size="10.00">mismatch_bam</text>
<text text-anchor="middle" x="379" y="-442" font-family="sans" font-size="10.00">ED: 4</text>
</g>
<!-- 26&#45;&gt;13 -->
<g id="edge31" class="edge"><title>26&#45;&gt;13</title>
<path fill="none" stroke="grey" stroke-width="2" d="M349.96,-431.837C337.682,-422.866 324.692,-410.68 318,-396 311.363,-381.441 312.484,-375.019 318,-360 321.784,-349.696 328.558,-340.025 335.72,-331.837"/>
<polygon fill="grey" stroke="grey" points="338.34,-334.16 342.621,-324.469 333.231,-329.375 338.34,-334.16"/>
</g>
<!-- 27 -->
<g id="node28" class="node"><title>27</title>
<path fill="none" stroke="#56b1d8" stroke-width="2" d="M386.25,-396C386.25,-396 339.75,-396 339.75,-396 333.75,-396 327.75,-390 327.75,-384 327.75,-384 327.75,-372 327.75,-372 327.75,-366 333.75,-360 339.75,-360 339.75,-360 386.25,-360 386.25,-360 392.25,-360 398.25,-366 398.25,-372 398.25,-372 398.25,-384 398.25,-384 398.25,-390 392.25,-396 386.25,-396"/>
<text text-anchor="middle" x="363" y="-381" font-family="sans" font-size="10.00">index_bam</text>
<text text-anchor="middle" x="363" y="-370" font-family="sans" font-size="10.00">ED: 0.4</text>
</g>
<!-- 26&#45;&gt;27 -->
<g id="edge49" class="edge"><title>26&#45;&gt;27</title>
<path fill="none" stroke="grey" stroke-width="2" d="M375.045,-431.697C373.282,-423.983 371.163,-414.712 369.197,-406.112"/>
<polygon fill="grey" stroke="grey" points="372.55,-405.073 366.91,-396.104 365.726,-406.633 372.55,-405.073"/>
</g>
<!-- 27&#45;&gt;13 -->
<g id="edge32" class="edge"><title>27&#45;&gt;13</title>
<path fill="none" stroke="grey" stroke-width="2" d="M363,-359.697C363,-351.983 363,-342.712 363,-334.112"/>
<polygon fill="grey" stroke="grey" points="366.5,-334.104 363,-324.104 359.5,-334.104 366.5,-334.104"/>
</g>
<!-- 28 -->
<g id="node29" class="node"><title>28</title>
<path fill="none" stroke="#56d8b9" stroke-width="2" d="M303,-468C303,-468 235,-468 235,-468 229,-468 223,-462 223,-456 223,-456 223,-444 223,-444 223,-438 229,-432 235,-432 235,-432 303,-432 303,-432 309,-432 315,-438 315,-444 315,-444 315,-456 315,-456 315,-462 309,-468 303,-468"/>
<text text-anchor="middle" x="269" y="-453" font-family="sans" font-size="10.00">mismatch_bam</text>
<text text-anchor="middle" x="269" y="-442" font-family="sans" font-size="10.00">ED: 4</text>
</g>
<!-- 28&#45;&gt;13 -->
<g id="edge33" class="edge"><title>28&#45;&gt;13</title>
<path fill="none" stroke="grey" stroke-width="2" d="M274.776,-431.988C281.559,-413.346 293.953,-383.031 310,-360 317.135,-349.76 326.362,-339.754 335.113,-331.244"/>
<polygon fill="grey" stroke="grey" points="337.733,-333.585 342.616,-324.182 332.935,-328.487 337.733,-333.585"/>
</g>
<!-- 29 -->
<g id="node30" class="node"><title>29</title>
<path fill="none" stroke="#56b1d8" stroke-width="2" d="M220.25,-396C220.25,-396 173.75,-396 173.75,-396 167.75,-396 161.75,-390 161.75,-384 161.75,-384 161.75,-372 161.75,-372 161.75,-366 167.75,-360 173.75,-360 173.75,-360 220.25,-360 220.25,-360 226.25,-360 232.25,-366 232.25,-372 232.25,-372 232.25,-384 232.25,-384 232.25,-390 226.25,-396 220.25,-396"/>
<text text-anchor="middle" x="197" y="-381" font-family="sans" font-size="10.00">index_bam</text>
<text text-anchor="middle" x="197" y="-370" font-family="sans" font-size="10.00">ED: 0.4</text>
</g>
<!-- 28&#45;&gt;29 -->
<g id="edge51" class="edge"><title>28&#45;&gt;29</title>
<path fill="none" stroke="grey" stroke-width="2" d="M251.202,-431.697C242.396,-423.135 231.618,-412.656 221.999,-403.304"/>
<polygon fill="grey" stroke="grey" points="224.203,-400.566 214.593,-396.104 219.323,-405.585 224.203,-400.566"/>
</g>
<!-- 29&#45;&gt;13 -->
<g id="edge34" class="edge"><title>29&#45;&gt;13</title>
<path fill="none" stroke="grey" stroke-width="2" d="M232.611,-361.983C256.114,-352.073 287.24,-338.947 313.186,-328.006"/>
<polygon fill="grey" stroke="grey" points="314.633,-331.194 322.487,-324.084 311.913,-324.744 314.633,-331.194"/>
</g>
<!-- 30 -->
<g id="node31" class="node"><title>30</title>
<path fill="none" stroke="#d86e56" stroke-width="2" d="M131.25,-396C131.25,-396 48.75,-396 48.75,-396 42.75,-396 36.75,-390 36.75,-384 36.75,-384 36.75,-372 36.75,-372 36.75,-366 42.75,-360 48.75,-360 48.75,-360 131.25,-360 131.25,-360 137.25,-360 143.25,-366 143.25,-372 143.25,-372 143.25,-384 143.25,-384 143.25,-390 137.25,-396 131.25,-396"/>
<text text-anchor="middle" x="90" y="-375.5" font-family="sans" font-size="10.00">freebayes_parallel</text>
</g>
<!-- 30&#45;&gt;14 -->
<g id="edge36" class="edge"><title>30&#45;&gt;14</title>
<path fill="none" stroke="grey" stroke-width="2" d="M123.025,-359.876C141.085,-350.512 163.645,-338.814 182.951,-328.803"/>
<polygon fill="grey" stroke="grey" points="184.582,-331.9 191.848,-324.19 181.36,-325.686 184.582,-331.9"/>
</g>
<!-- 30&#45;&gt;15 -->
<g id="edge37" class="edge"><title>30&#45;&gt;15</title>
<path fill="none" stroke="grey" stroke-width="2" d="M84.5618,-359.697C82.1108,-351.898 79.1598,-342.509 76.432,-333.829"/>
<polygon fill="grey" stroke="grey" points="79.713,-332.595 73.3756,-324.104 73.035,-334.694 79.713,-332.595"/>
</g>
<!-- 31 -->
<g id="node32" class="node"><title>31</title>
<path fill="none" stroke="#5682d8" stroke-width="2" d="M627.25,-468C627.25,-468 580.75,-468 580.75,-468 574.75,-468 568.75,-462 568.75,-456 568.75,-456 568.75,-444 568.75,-444 568.75,-438 574.75,-432 580.75,-432 580.75,-432 627.25,-432 627.25,-432 633.25,-432 639.25,-438 639.25,-444 639.25,-444 639.25,-456 639.25,-456 639.25,-462 633.25,-468 627.25,-468"/>
<text text-anchor="middle" x="604" y="-447.5" font-family="sans" font-size="10.00">lastal_syns</text>
</g>
<!-- 31&#45;&gt;16 -->
<g id="edge38" class="edge"><title>31&#45;&gt;16</title>
<path fill="none" stroke="grey" stroke-width="2" d="M606.225,-431.697C607.217,-423.983 608.408,-414.712 609.514,-406.112"/>
<polygon fill="grey" stroke="grey" points="612.997,-406.469 610.801,-396.104 606.054,-405.576 612.997,-406.469"/>
</g>
<!-- 32 -->
<g id="node33" class="node"><title>32</title>
<path fill="none" stroke="#d8c356" stroke-width="2" stroke-dasharray="5,2" d="M322,-540C322,-540 222,-540 222,-540 216,-540 210,-534 210,-528 210,-528 210,-516 210,-516 210,-510 216,-504 222,-504 222,-504 322,-504 322,-504 328,-504 334,-510 334,-516 334,-516 334,-528 334,-528 334,-534 328,-540 322,-540"/>
<text text-anchor="middle" x="272" y="-519.5" font-family="sans" font-size="10.00">index_fasta_samtools</text>
</g>
<!-- 32&#45;&gt;17 -->
<g id="edge39" class="edge"><title>32&#45;&gt;17</title>
<path fill="none" stroke="grey" stroke-width="2" d="M334.194,-512.41C366.967,-505.19 406.047,-491.999 434,-468 452.906,-451.769 464.777,-425.66 471.547,-405.909"/>
<polygon fill="grey" stroke="grey" points="474.925,-406.837 474.633,-396.246 468.257,-404.707 474.925,-406.837"/>
</g>
<!-- 35 -->
<g id="node36" class="node"><title>35</title>
<path fill="none" stroke="#56d892" stroke-width="2" d="M117,-468C117,-468 49,-468 49,-468 43,-468 37,-462 37,-456 37,-456 37,-444 37,-444 37,-438 43,-432 49,-432 49,-432 117,-432 117,-432 123,-432 129,-438 129,-444 129,-444 129,-456 129,-456 129,-462 123,-468 117,-468"/>
<text text-anchor="middle" x="83" y="-447.5" font-family="sans" font-size="10.00">freebayes_prep</text>
</g>
<!-- 32&#45;&gt;35 -->
<g id="edge58" class="edge"><title>32&#45;&gt;35</title>
<path fill="none" stroke="grey" stroke-width="2" d="M225.765,-503.876C199.469,-494.137 166.356,-481.872 138.642,-471.608"/>
<polygon fill="grey" stroke="grey" points="139.678,-468.259 129.084,-468.068 137.246,-474.824 139.678,-468.259"/>
</g>
<!-- 33 -->
<g id="node34" class="node"><title>33</title>
<path fill="none" stroke="#d8b456" stroke-width="2" d="M893,-540C893,-540 807,-540 807,-540 801,-540 795,-534 795,-528 795,-528 795,-516 795,-516 795,-510 801,-504 807,-504 807,-504 893,-504 893,-504 899,-504 905,-510 905,-516 905,-516 905,-528 905,-528 905,-534 899,-540 893,-540"/>
<text text-anchor="middle" x="850" y="-519.5" font-family="sans" font-size="10.00">remove_duplicates</text>
</g>
<!-- 33&#45;&gt;18 -->
<g id="edge40" class="edge"><title>33&#45;&gt;18</title>
<path fill="none" stroke="grey" stroke-width="2" d="M905.05,-504.652C937.683,-494.93 980.101,-482.239 1025.96,-468.305"/>
<polygon fill="grey" stroke="grey" points="1027.25,-471.572 1035.8,-465.314 1025.21,-464.875 1027.25,-471.572"/>
</g>
<!-- 33&#45;&gt;22 -->
<g id="edge44" class="edge"><title>33&#45;&gt;22</title>
<path fill="none" stroke="grey" stroke-width="2" d="M850,-503.697C850,-495.983 850,-486.712 850,-478.112"/>
<polygon fill="grey" stroke="grey" points="853.5,-478.104 850,-468.104 846.5,-478.104 853.5,-478.104"/>
</g>
<!-- 33&#45;&gt;26 -->
<g id="edge48" class="edge"><title>33&#45;&gt;26</title>
<path fill="none" stroke="grey" stroke-width="2" d="M794.756,-506.819C790.116,-505.802 785.486,-504.846 781,-504 658.521,-480.911 513.173,-464.408 435.172,-456.425"/>
<polygon fill="grey" stroke="grey" points="435.383,-452.929 425.081,-455.402 434.677,-459.893 435.383,-452.929"/>
</g>
<!-- 33&#45;&gt;30 -->
<g id="edge53" class="edge"><title>33&#45;&gt;30</title>
<path fill="none" stroke="grey" stroke-width="2" d="M794.813,-506.485C790.161,-505.541 785.512,-504.693 781,-504 656.211,-484.823 330.069,-517.678 214,-468 192.314,-458.718 193.758,-446.304 175,-432 160.685,-421.084 144.049,-410.33 129.309,-401.392"/>
<polygon fill="grey" stroke="grey" points="130.794,-398.202 120.415,-396.077 127.203,-404.211 130.794,-398.202"/>
</g>
<!-- 34 -->
<g id="node35" class="node"><title>34</title>
<path fill="none" stroke="#d8b456" stroke-width="2" d="M760,-540C760,-540 674,-540 674,-540 668,-540 662,-534 662,-528 662,-528 662,-516 662,-516 662,-510 668,-504 674,-504 674,-504 760,-504 760,-504 766,-504 772,-510 772,-516 772,-516 772,-528 772,-528 772,-534 766,-540 760,-540"/>
<text text-anchor="middle" x="717" y="-519.5" font-family="sans" font-size="10.00">remove_duplicates</text>
</g>
<!-- 34&#45;&gt;20 -->
<g id="edge42" class="edge"><title>34&#45;&gt;20</title>
<path fill="none" stroke="grey" stroke-width="2" d="M772.017,-505.897C814.533,-494.226 873.149,-478.136 915.928,-466.392"/>
<polygon fill="grey" stroke="grey" points="916.904,-469.754 925.621,-463.731 915.051,-463.004 916.904,-469.754"/>
</g>
<!-- 34&#45;&gt;24 -->
<g id="edge46" class="edge"><title>34&#45;&gt;24</title>
<path fill="none" stroke="grey" stroke-width="2" d="M717.742,-503.697C718.072,-495.983 718.469,-486.712 718.838,-478.112"/>
<polygon fill="grey" stroke="grey" points="722.335,-478.245 719.267,-468.104 715.342,-477.945 722.335,-478.245"/>
</g>
<!-- 34&#45;&gt;28 -->
<g id="edge50" class="edge"><title>34&#45;&gt;28</title>
<path fill="none" stroke="grey" stroke-width="2" d="M661.805,-505.977C658.498,-505.26 655.212,-504.593 652,-504 511.023,-477.973 469.454,-496.895 325.159,-467.999"/>
<polygon fill="grey" stroke="grey" points="325.546,-464.506 315.047,-465.93 324.143,-471.364 325.546,-464.506"/>
</g>
<!-- 34&#45;&gt;30 -->
<g id="edge54" class="edge"><title>34&#45;&gt;30</title>
<path fill="none" stroke="grey" stroke-width="2" d="M661.828,-505.85C658.515,-505.165 655.221,-504.54 652,-504 548.472,-486.65 276.621,-511.309 181,-468 164.813,-460.669 133.052,-427.425 111.671,-403.72"/>
<polygon fill="grey" stroke="grey" points="114.13,-401.219 104.856,-396.097 108.912,-405.885 114.13,-401.219"/>
</g>
<!-- 35&#45;&gt;30 -->
<g id="edge52" class="edge"><title>35&#45;&gt;30</title>
<path fill="none" stroke="grey" stroke-width="2" d="M84.7303,-431.697C85.5017,-423.983 86.4288,-414.712 87.2888,-406.112"/>
<polygon fill="grey" stroke="grey" points="90.7771,-406.403 88.2896,-396.104 83.8118,-405.706 90.7771,-406.403"/>
</g>
<!-- 36 -->
<g id="node37" class="node"><title>36</title>
<path fill="none" stroke="#8fd856" stroke-width="2" stroke-dasharray="5,2" d="M631.25,-540C631.25,-540 562.75,-540 562.75,-540 556.75,-540 550.75,-534 550.75,-528 550.75,-528 550.75,-516 550.75,-516 550.75,-510 556.75,-504 562.75,-504 562.75,-504 631.25,-504 631.25,-504 637.25,-504 643.25,-510 643.25,-516 643.25,-516 643.25,-528 643.25,-528 643.25,-534 637.25,-540 631.25,-540"/>
<text text-anchor="middle" x="597" y="-519.5" font-family="sans" font-size="10.00">fasta_formatter</text>
</g>
<!-- 36&#45;&gt;31 -->
<g id="edge55" class="edge"><title>36&#45;&gt;31</title>
<path fill="none" stroke="grey" stroke-width="2" d="M598.73,-503.697C599.502,-495.983 600.429,-486.712 601.289,-478.112"/>
<polygon fill="grey" stroke="grey" points="604.777,-478.403 602.29,-468.104 597.812,-477.706 604.777,-478.403"/>
</g>
<!-- 37 -->
<g id="node38" class="node"><title>37</title>
<path fill="none" stroke="#d85656" stroke-width="2" d="M878,-612C878,-612 840,-612 840,-612 834,-612 828,-606 828,-600 828,-600 828,-588 828,-588 828,-582 834,-576 840,-576 840,-576 878,-576 878,-576 884,-576 890,-582 890,-588 890,-588 890,-600 890,-600 890,-606 884,-612 878,-612"/>
<text text-anchor="middle" x="859" y="-591.5" font-family="sans" font-size="10.00">sort_bam</text>
</g>
<!-- 37&#45;&gt;33 -->
<g id="edge56" class="edge"><title>37&#45;&gt;33</title>
<path fill="none" stroke="grey" stroke-width="2" d="M856.775,-575.697C855.783,-567.983 854.592,-558.712 853.486,-550.112"/>
<polygon fill="grey" stroke="grey" points="856.946,-549.576 852.199,-540.104 850.003,-550.469 856.946,-549.576"/>
</g>
<!-- 38 -->
<g id="node39" class="node"><title>38</title>
<path fill="none" stroke="#d85656" stroke-width="2" d="M719,-612C719,-612 681,-612 681,-612 675,-612 669,-606 669,-600 669,-600 669,-588 669,-588 669,-582 675,-576 681,-576 681,-576 719,-576 719,-576 725,-576 731,-582 731,-588 731,-588 731,-600 731,-600 731,-606 725,-612 719,-612"/>
<text text-anchor="middle" x="700" y="-591.5" font-family="sans" font-size="10.00">sort_bam</text>
</g>
<!-- 38&#45;&gt;34 -->
<g id="edge57" class="edge"><title>38&#45;&gt;34</title>
<path fill="none" stroke="grey" stroke-width="2" d="M704.202,-575.697C706.096,-567.898 708.377,-558.509 710.484,-549.829"/>
<polygon fill="grey" stroke="grey" points="713.887,-550.648 712.846,-540.104 707.085,-548.996 713.887,-550.648"/>
</g>
<!-- 39 -->
<g id="node40" class="node"><title>39</title>
<path fill="none" stroke="#569ad8" stroke-width="2" d="M969,-684C969,-684 817,-684 817,-684 811,-684 805,-678 805,-672 805,-672 805,-660 805,-660 805,-654 811,-648 817,-648 817,-648 969,-648 969,-648 975,-648 981,-654 981,-660 981,-660 981,-672 981,-672 981,-678 975,-684 969,-684"/>
<text text-anchor="middle" x="893" y="-669" font-family="sans" font-size="10.00">map</text>
<text text-anchor="middle" x="893" y="-658" font-family="sans" font-size="10.00">S: SJ&#45;2333&#45;Aarv&#45;052&#45;NL_S3_L001</text>
</g>
<!-- 39&#45;&gt;37 -->
<g id="edge59" class="edge"><title>39&#45;&gt;37</title>
<path fill="none" stroke="grey" stroke-width="2" d="M884.596,-647.697C880.725,-639.728 876.048,-630.1 871.757,-621.264"/>
<polygon fill="grey" stroke="grey" points="874.825,-619.57 867.308,-612.104 868.529,-622.629 874.825,-619.57"/>
</g>
<!-- 40 -->
<g id="node41" class="node"><title>40</title>
<path fill="none" stroke="#569ad8" stroke-width="2" d="M775,-684C775,-684 617,-684 617,-684 611,-684 605,-678 605,-672 605,-672 605,-660 605,-660 605,-654 611,-648 617,-648 617,-648 775,-648 775,-648 781,-648 787,-654 787,-660 787,-660 787,-672 787,-672 787,-678 781,-684 775,-684"/>
<text text-anchor="middle" x="696" y="-669" font-family="sans" font-size="10.00">map</text>
<text text-anchor="middle" x="696" y="-658" font-family="sans" font-size="10.00">S: SJ&#45;2333&#45;Aarv&#45;043&#45;NL_S13_L001</text>
</g>
<!-- 40&#45;&gt;38 -->
<g id="edge60" class="edge"><title>40&#45;&gt;38</title>
<path fill="none" stroke="grey" stroke-width="2" d="M696.989,-647.697C697.43,-639.983 697.959,-630.712 698.451,-622.112"/>
<polygon fill="grey" stroke="grey" points="701.946,-622.288 699.023,-612.104 694.958,-621.888 701.946,-622.288"/>
</g>
<!-- 41 -->
<g id="node42" class="node"><title>41</title>
<path fill="none" stroke="#d6d856" stroke-width="2" stroke-dasharray="5,2" d="M831.25,-756C831.25,-756 756.75,-756 756.75,-756 750.75,-756 744.75,-750 744.75,-744 744.75,-744 744.75,-732 744.75,-732 744.75,-726 750.75,-720 756.75,-720 756.75,-720 831.25,-720 831.25,-720 837.25,-720 843.25,-726 843.25,-732 843.25,-732 843.25,-744 843.25,-744 843.25,-750 837.25,-756 831.25,-756"/>
<text text-anchor="middle" x="794" y="-735.5" font-family="sans" font-size="10.00">index_fasta_bwa</text>
</g>
<!-- 41&#45;&gt;39 -->
<g id="edge61" class="edge"><title>41&#45;&gt;39</title>
<path fill="none" stroke="grey" stroke-width="2" d="M818.218,-719.876C830.923,-710.893 846.664,-699.763 860.423,-690.034"/>
<polygon fill="grey" stroke="grey" points="862.544,-692.821 868.689,-684.19 858.503,-687.105 862.544,-692.821"/>
</g>
<!-- 41&#45;&gt;40 -->
<g id="edge62" class="edge"><title>41&#45;&gt;40</title>
<path fill="none" stroke="grey" stroke-width="2" d="M770.027,-719.876C757.45,-710.893 741.868,-699.763 728.248,-690.034"/>
<polygon fill="grey" stroke="grey" points="730.237,-687.154 720.066,-684.19 726.169,-692.85 730.237,-687.154"/>
</g>
</g>
</svg>
