<?xml version="1.0" encoding="UTF-8" standalone="no"?>
<!DOCTYPE svg PUBLIC "-//W3C//DTD SVG 1.1//EN"
 "http://www.w3.org/Graphics/SVG/1.1/DTD/svg11.dtd">
<!-- Generated by graphviz version 2.40.1 (20161225.0304)
 -->
<!-- Title: snakemake_dag Pages: 1 -->
<svg width="1025pt" height="692pt"
 viewBox="0.00 0.00 1025.00 692.00" xmlns="http://www.w3.org/2000/svg" xmlns:xlink="http://www.w3.org/1999/xlink">
<g id="graph0" class="graph" transform="scale(1 1) rotate(0) translate(4 688)">
<title>snakemake_dag</title>
<polygon fill="#ffffff" stroke="transparent" points="-4,4 -4,-688 1021,-688 1021,4 -4,4"/>
<!-- 0 -->
<g id="node1" class="node">
<title>0</title>
<path fill="none" stroke="#56a9d8" stroke-width="2" d="M421.5,-36C421.5,-36 381.5,-36 381.5,-36 375.5,-36 369.5,-30 369.5,-24 369.5,-24 369.5,-12 369.5,-12 369.5,-6 375.5,0 381.5,0 381.5,0 421.5,0 421.5,0 427.5,0 433.5,-6 433.5,-12 433.5,-12 433.5,-24 433.5,-24 433.5,-30 427.5,-36 421.5,-36"/>
<text text-anchor="middle" x="401.5" y="-21" font-family="sans" font-size="10.00" fill="#000000">plotting</text>
<text text-anchor="middle" x="401.5" y="-10" font-family="sans" font-size="10.00" fill="#000000">synteny: .</text>
</g>
<!-- 1 -->
<g id="node2" class="node">
<title>1</title>
<path fill="none" stroke="#d8ac56" stroke-width="2" d="M516,-108C516,-108 451,-108 451,-108 445,-108 439,-102 439,-96 439,-96 439,-84 439,-84 439,-78 445,-72 451,-72 451,-72 516,-72 516,-72 522,-72 528,-78 528,-84 528,-84 528,-96 528,-96 528,-102 522,-108 516,-108"/>
<text text-anchor="middle" x="483.5" y="-87.5" font-family="sans" font-size="10.00" fill="#000000">calculate_ratio</text>
</g>
<!-- 1&#45;&gt;0 -->
<g id="edge1" class="edge">
<title>1&#45;&gt;0</title>
<path fill="none" stroke="#c0c0c0" stroke-width="2" d="M462.8079,-71.8314C452.8052,-63.0485 440.645,-52.3712 429.8001,-42.8489"/>
<polygon fill="#c0c0c0" stroke="#c0c0c0" stroke-width="2" points="432.0092,-40.1308 422.1854,-36.1628 427.3906,-45.3909 432.0092,-40.1308"/>
</g>
<!-- 2 -->
<g id="node3" class="node">
<title>2</title>
<path fill="none" stroke="#d8ac56" stroke-width="2" d="M725,-108C725,-108 660,-108 660,-108 654,-108 648,-102 648,-96 648,-96 648,-84 648,-84 648,-78 654,-72 660,-72 660,-72 725,-72 725,-72 731,-72 737,-78 737,-84 737,-84 737,-96 737,-96 737,-102 731,-108 725,-108"/>
<text text-anchor="middle" x="692.5" y="-87.5" font-family="sans" font-size="10.00" fill="#000000">calculate_ratio</text>
</g>
<!-- 2&#45;&gt;0 -->
<g id="edge2" class="edge">
<title>2&#45;&gt;0</title>
<path fill="none" stroke="#c0c0c0" stroke-width="2" d="M647.9866,-78.9864C592.4945,-65.2564 498.3309,-41.9582 443.8613,-28.4811"/>
<polygon fill="#c0c0c0" stroke="#c0c0c0" stroke-width="2" points="444.3932,-25.0073 433.8453,-26.003 442.7119,-31.8024 444.3932,-25.0073"/>
</g>
<!-- 3 -->
<g id="node4" class="node">
<title>3</title>
<path fill="none" stroke="#d8ac56" stroke-width="2" d="M381,-108C381,-108 316,-108 316,-108 310,-108 304,-102 304,-96 304,-96 304,-84 304,-84 304,-78 310,-72 316,-72 316,-72 381,-72 381,-72 387,-72 393,-78 393,-84 393,-84 393,-96 393,-96 393,-102 387,-108 381,-108"/>
<text text-anchor="middle" x="348.5" y="-87.5" font-family="sans" font-size="10.00" fill="#000000">calculate_ratio</text>
</g>
<!-- 3&#45;&gt;0 -->
<g id="edge3" class="edge">
<title>3&#45;&gt;0</title>
<path fill="none" stroke="#c0c0c0" stroke-width="2" d="M361.8741,-71.8314C367.9162,-63.6232 375.1763,-53.7606 381.8221,-44.7323"/>
<polygon fill="#c0c0c0" stroke="#c0c0c0" stroke-width="2" points="384.8363,-46.5415 387.9458,-36.4133 379.1989,-42.3918 384.8363,-46.5415"/>
</g>
<!-- 4 -->
<g id="node5" class="node">
<title>4</title>
<path fill="none" stroke="#566bd8" stroke-width="2" d="M273,-108C273,-108 158,-108 158,-108 152,-108 146,-102 146,-96 146,-96 146,-84 146,-84 146,-78 152,-72 158,-72 158,-72 273,-72 273,-72 279,-72 285,-78 285,-84 285,-84 285,-96 285,-96 285,-102 279,-108 273,-108"/>
<text text-anchor="middle" x="215.5" y="-87.5" font-family="sans" font-size="10.00" fill="#000000">calculate_heterozygosity</text>
</g>
<!-- 4&#45;&gt;0 -->
<g id="edge4" class="edge">
<title>4&#45;&gt;0</title>
<path fill="none" stroke="#c0c0c0" stroke-width="2" d="M262.4357,-71.8314C292.4092,-60.2287 330.9235,-45.3199 359.8171,-34.1353"/>
<polygon fill="#c0c0c0" stroke="#c0c0c0" stroke-width="2" points="361.1586,-37.3692 369.2208,-30.4952 358.6316,-30.8412 361.1586,-37.3692"/>
</g>
<!-- 5 -->
<g id="node6" class="node">
<title>5</title>
<path fill="none" stroke="#c6d856" stroke-width="2" d="M571.5,-180C571.5,-180 507.5,-180 507.5,-180 501.5,-180 495.5,-174 495.5,-168 495.5,-168 495.5,-156 495.5,-156 495.5,-150 501.5,-144 507.5,-144 507.5,-144 571.5,-144 571.5,-144 577.5,-144 583.5,-150 583.5,-156 583.5,-156 583.5,-168 583.5,-168 583.5,-174 577.5,-180 571.5,-180"/>
<text text-anchor="middle" x="539.5" y="-165" font-family="sans" font-size="10.00" fill="#000000">normalize_cov</text>
<text text-anchor="middle" x="539.5" y="-154" font-family="sans" font-size="10.00" fill="#000000">ED: 0.0</text>
</g>
<!-- 5&#45;&gt;1 -->
<g id="edge5" class="edge">
<title>5&#45;&gt;1</title>
<path fill="none" stroke="#c0c0c0" stroke-width="2" d="M525.3688,-143.8314C518.9189,-135.5386 511.1555,-125.557 504.0748,-116.4533"/>
<polygon fill="#c0c0c0" stroke="#c0c0c0" stroke-width="2" points="506.7236,-114.158 497.8214,-108.4133 501.1981,-118.4556 506.7236,-114.158"/>
</g>
<!-- 6 -->
<g id="node7" class="node">
<title>6</title>
<path fill="none" stroke="#c6d856" stroke-width="2" d="M789.5,-180C789.5,-180 725.5,-180 725.5,-180 719.5,-180 713.5,-174 713.5,-168 713.5,-168 713.5,-156 713.5,-156 713.5,-150 719.5,-144 725.5,-144 725.5,-144 789.5,-144 789.5,-144 795.5,-144 801.5,-150 801.5,-156 801.5,-156 801.5,-168 801.5,-168 801.5,-174 795.5,-180 789.5,-180"/>
<text text-anchor="middle" x="757.5" y="-165" font-family="sans" font-size="10.00" fill="#000000">normalize_cov</text>
<text text-anchor="middle" x="757.5" y="-154" font-family="sans" font-size="10.00" fill="#000000">ED: 0.2</text>
</g>
<!-- 6&#45;&gt;2 -->
<g id="edge6" class="edge">
<title>6&#45;&gt;2</title>
<path fill="none" stroke="#c0c0c0" stroke-width="2" d="M741.0978,-143.8314C733.4585,-135.3694 724.2317,-125.1489 715.8793,-115.8971"/>
<polygon fill="#c0c0c0" stroke="#c0c0c0" stroke-width="2" points="718.4221,-113.4906 709.1231,-108.4133 713.2262,-118.1813 718.4221,-113.4906"/>
</g>
<!-- 7 -->
<g id="node8" class="node">
<title>7</title>
<path fill="none" stroke="#c6d856" stroke-width="2" d="M366.5,-180C366.5,-180 302.5,-180 302.5,-180 296.5,-180 290.5,-174 290.5,-168 290.5,-168 290.5,-156 290.5,-156 290.5,-150 296.5,-144 302.5,-144 302.5,-144 366.5,-144 366.5,-144 372.5,-144 378.5,-150 378.5,-156 378.5,-156 378.5,-168 378.5,-168 378.5,-174 372.5,-180 366.5,-180"/>
<text text-anchor="middle" x="334.5" y="-165" font-family="sans" font-size="10.00" fill="#000000">normalize_cov</text>
<text text-anchor="middle" x="334.5" y="-154" font-family="sans" font-size="10.00" fill="#000000">ED: 0.4</text>
</g>
<!-- 7&#45;&gt;3 -->
<g id="edge7" class="edge">
<title>7&#45;&gt;3</title>
<path fill="none" stroke="#c0c0c0" stroke-width="2" d="M338.0328,-143.8314C339.5301,-136.131 341.3105,-126.9743 342.9745,-118.4166"/>
<polygon fill="#c0c0c0" stroke="#c0c0c0" stroke-width="2" points="346.4465,-118.8975 344.9196,-108.4133 339.5752,-117.5614 346.4465,-118.8975"/>
</g>
<!-- 8 -->
<g id="node9" class="node">
<title>8</title>
<path fill="none" stroke="#d89556" stroke-width="2" d="M246,-180C246,-180 125,-180 125,-180 119,-180 113,-174 113,-168 113,-168 113,-156 113,-156 113,-150 119,-144 125,-144 125,-144 246,-144 246,-144 252,-144 258,-150 258,-156 258,-156 258,-168 258,-168 258,-174 252,-180 246,-180"/>
<text text-anchor="middle" x="185.5" y="-159.5" font-family="sans" font-size="10.00" fill="#000000">proportion_heterozygosity</text>
</g>
<!-- 8&#45;&gt;4 -->
<g id="edge8" class="edge">
<title>8&#45;&gt;4</title>
<path fill="none" stroke="#c0c0c0" stroke-width="2" d="M193.0703,-143.8314C196.3493,-135.9617 200.262,-126.5712 203.8945,-117.8533"/>
<polygon fill="#c0c0c0" stroke="#c0c0c0" stroke-width="2" points="207.2124,-118.9902 207.8278,-108.4133 200.7508,-116.2979 207.2124,-118.9902"/>
</g>
<!-- 9 -->
<g id="node10" class="node">
<title>9</title>
<path fill="none" stroke="#68d856" stroke-width="2" d="M604,-252C604,-252 529,-252 529,-252 523,-252 517,-246 517,-240 517,-240 517,-228 517,-228 517,-222 523,-216 529,-216 529,-216 604,-216 604,-216 610,-216 616,-222 616,-228 616,-228 616,-240 616,-240 616,-246 610,-252 604,-252"/>
<text text-anchor="middle" x="566.5" y="-237" font-family="sans" font-size="10.00" fill="#000000">gencov_bedtools</text>
<text text-anchor="middle" x="566.5" y="-226" font-family="sans" font-size="10.00" fill="#000000">V: 0.0</text>
</g>
<!-- 9&#45;&gt;5 -->
<g id="edge9" class="edge">
<title>9&#45;&gt;5</title>
<path fill="none" stroke="#c0c0c0" stroke-width="2" d="M559.6868,-215.8314C556.7356,-207.9617 553.2142,-198.5712 549.945,-189.8533"/>
<polygon fill="#c0c0c0" stroke="#c0c0c0" stroke-width="2" points="553.1934,-188.5476 546.405,-180.4133 546.6391,-191.0055 553.1934,-188.5476"/>
</g>
<!-- 10 -->
<g id="node11" class="node">
<title>10</title>
<path fill="none" stroke="#68d856" stroke-width="2" d="M859,-252C859,-252 784,-252 784,-252 778,-252 772,-246 772,-240 772,-240 772,-228 772,-228 772,-222 778,-216 784,-216 784,-216 859,-216 859,-216 865,-216 871,-222 871,-228 871,-228 871,-240 871,-240 871,-246 865,-252 859,-252"/>
<text text-anchor="middle" x="821.5" y="-237" font-family="sans" font-size="10.00" fill="#000000">gencov_bedtools</text>
<text text-anchor="middle" x="821.5" y="-226" font-family="sans" font-size="10.00" fill="#000000">V: 0.2</text>
</g>
<!-- 10&#45;&gt;6 -->
<g id="edge10" class="edge">
<title>10&#45;&gt;6</title>
<path fill="none" stroke="#c0c0c0" stroke-width="2" d="M805.3501,-215.8314C797.8283,-207.3694 788.7435,-197.1489 780.5196,-187.8971"/>
<polygon fill="#c0c0c0" stroke="#c0c0c0" stroke-width="2" points="783.127,-185.5621 773.8673,-180.4133 777.8951,-190.2127 783.127,-185.5621"/>
</g>
<!-- 11 -->
<g id="node12" class="node">
<title>11</title>
<path fill="none" stroke="#68d856" stroke-width="2" d="M333,-252C333,-252 258,-252 258,-252 252,-252 246,-246 246,-240 246,-240 246,-228 246,-228 246,-222 252,-216 258,-216 258,-216 333,-216 333,-216 339,-216 345,-222 345,-228 345,-228 345,-240 345,-240 345,-246 339,-252 333,-252"/>
<text text-anchor="middle" x="295.5" y="-237" font-family="sans" font-size="10.00" fill="#000000">gencov_bedtools</text>
<text text-anchor="middle" x="295.5" y="-226" font-family="sans" font-size="10.00" fill="#000000">V: 0.4</text>
</g>
<!-- 11&#45;&gt;7 -->
<g id="edge11" class="edge">
<title>11&#45;&gt;7</title>
<path fill="none" stroke="#c0c0c0" stroke-width="2" d="M305.3413,-215.8314C309.6957,-207.7925 314.9098,-198.1666 319.7169,-189.2918"/>
<polygon fill="#c0c0c0" stroke="#c0c0c0" stroke-width="2" points="322.8408,-190.8732 324.5261,-180.4133 316.6857,-187.5392 322.8408,-190.8732"/>
</g>
<!-- 12 -->
<g id="node13" class="node">
<title>12</title>
<path fill="none" stroke="#59d856" stroke-width="2" d="M153,-252C153,-252 94,-252 94,-252 88,-252 82,-246 82,-240 82,-240 82,-228 82,-228 82,-222 88,-216 94,-216 94,-216 153,-216 153,-216 159,-216 165,-222 165,-228 165,-228 165,-240 165,-240 165,-246 159,-252 153,-252"/>
<text text-anchor="middle" x="123.5" y="-231.5" font-family="sans" font-size="10.00" fill="#000000">vcftools_filter</text>
</g>
<!-- 12&#45;&gt;8 -->
<g id="edge12" class="edge">
<title>12&#45;&gt;8</title>
<path fill="none" stroke="#c0c0c0" stroke-width="2" d="M139.1452,-215.8314C146.3591,-207.454 155.057,-197.3531 162.9605,-188.1749"/>
<polygon fill="#c0c0c0" stroke="#c0c0c0" stroke-width="2" points="165.7711,-190.2748 169.6441,-180.4133 160.4667,-185.7071 165.7711,-190.2748"/>
</g>
<!-- 13 -->
<g id="node14" class="node">
<title>13</title>
<path fill="none" stroke="#56d8d8" stroke-width="2" d="M717.5,-396C717.5,-396 649.5,-396 649.5,-396 643.5,-396 637.5,-390 637.5,-384 637.5,-384 637.5,-372 637.5,-372 637.5,-366 643.5,-360 649.5,-360 649.5,-360 717.5,-360 717.5,-360 723.5,-360 729.5,-366 729.5,-372 729.5,-372 729.5,-384 729.5,-384 729.5,-390 723.5,-396 717.5,-396"/>
<text text-anchor="middle" x="683.5" y="-381" font-family="sans" font-size="10.00" fill="#000000">mismatch_bam</text>
<text text-anchor="middle" x="683.5" y="-370" font-family="sans" font-size="10.00" fill="#000000">ED: 0</text>
</g>
<!-- 13&#45;&gt;9 -->
<g id="edge13" class="edge">
<title>13&#45;&gt;9</title>
<path fill="none" stroke="#c0c0c0" stroke-width="2" d="M705.3183,-359.9403C725.3156,-341.1659 749.4365,-311.3195 732.5,-288 719.6398,-270.2931 668.4581,-255.3786 626.2858,-245.7413"/>
<polygon fill="#c0c0c0" stroke="#c0c0c0" stroke-width="2" points="626.8629,-242.2842 616.3412,-243.5265 625.3411,-249.1168 626.8629,-242.2842"/>
</g>
<!-- 14 -->
<g id="node15" class="node">
<title>14</title>
<path fill="none" stroke="#d86e56" stroke-width="2" d="M711,-324C711,-324 664,-324 664,-324 658,-324 652,-318 652,-312 652,-312 652,-300 652,-300 652,-294 658,-288 664,-288 664,-288 711,-288 711,-288 717,-288 723,-294 723,-300 723,-300 723,-312 723,-312 723,-318 717,-324 711,-324"/>
<text text-anchor="middle" x="687.5" y="-309" font-family="sans" font-size="10.00" fill="#000000">index_bam</text>
<text text-anchor="middle" x="687.5" y="-298" font-family="sans" font-size="10.00" fill="#000000">ED: 0.0</text>
</g>
<!-- 13&#45;&gt;14 -->
<g id="edge30" class="edge">
<title>13&#45;&gt;14</title>
<path fill="none" stroke="#c0c0c0" stroke-width="2" d="M684.5094,-359.8314C684.9372,-352.131 685.4459,-342.9743 685.9213,-334.4166"/>
<polygon fill="#c0c0c0" stroke="#c0c0c0" stroke-width="2" points="689.4169,-334.592 686.477,-324.4133 682.4276,-334.2037 689.4169,-334.592"/>
</g>
<!-- 14&#45;&gt;9 -->
<g id="edge14" class="edge">
<title>14&#45;&gt;9</title>
<path fill="none" stroke="#c0c0c0" stroke-width="2" d="M656.9666,-287.8314C641.4899,-278.6221 622.5131,-267.3301 605.9437,-257.4706"/>
<polygon fill="#c0c0c0" stroke="#c0c0c0" stroke-width="2" points="607.4071,-254.2687 597.0236,-252.1628 603.8276,-260.2843 607.4071,-254.2687"/>
</g>
<!-- 15 -->
<g id="node16" class="node">
<title>15</title>
<path fill="none" stroke="#56d8d8" stroke-width="2" d="M568.5,-396C568.5,-396 500.5,-396 500.5,-396 494.5,-396 488.5,-390 488.5,-384 488.5,-384 488.5,-372 488.5,-372 488.5,-366 494.5,-360 500.5,-360 500.5,-360 568.5,-360 568.5,-360 574.5,-360 580.5,-366 580.5,-372 580.5,-372 580.5,-384 580.5,-384 580.5,-390 574.5,-396 568.5,-396"/>
<text text-anchor="middle" x="534.5" y="-381" font-family="sans" font-size="10.00" fill="#000000">mismatch_bam</text>
<text text-anchor="middle" x="534.5" y="-370" font-family="sans" font-size="10.00" fill="#000000">ED: 0</text>
</g>
<!-- 15&#45;&gt;9 -->
<g id="edge15" class="edge">
<title>15&#45;&gt;9</title>
<path fill="none" stroke="#c0c0c0" stroke-width="2" d="M538.2067,-359.6956C541.9311,-341.4872 547.9056,-312.7674 553.5,-288 555.3823,-279.667 557.5187,-270.6343 559.5079,-262.3842"/>
<polygon fill="#c0c0c0" stroke="#c0c0c0" stroke-width="2" points="562.9581,-263.008 561.9186,-252.4643 556.1561,-261.3549 562.9581,-263.008"/>
</g>
<!-- 16 -->
<g id="node17" class="node">
<title>16</title>
<path fill="none" stroke="#d86e56" stroke-width="2" d="M622,-324C622,-324 575,-324 575,-324 569,-324 563,-318 563,-312 563,-312 563,-300 563,-300 563,-294 569,-288 575,-288 575,-288 622,-288 622,-288 628,-288 634,-294 634,-300 634,-300 634,-312 634,-312 634,-318 628,-324 622,-324"/>
<text text-anchor="middle" x="598.5" y="-309" font-family="sans" font-size="10.00" fill="#000000">index_bam</text>
<text text-anchor="middle" x="598.5" y="-298" font-family="sans" font-size="10.00" fill="#000000">ED: 0.0</text>
</g>
<!-- 15&#45;&gt;16 -->
<g id="edge32" class="edge">
<title>15&#45;&gt;16</title>
<path fill="none" stroke="#c0c0c0" stroke-width="2" d="M550.6499,-359.8314C558.1717,-351.3694 567.2565,-341.1489 575.4804,-331.8971"/>
<polygon fill="#c0c0c0" stroke="#c0c0c0" stroke-width="2" points="578.1049,-334.2127 582.1327,-324.4133 572.873,-329.5621 578.1049,-334.2127"/>
</g>
<!-- 16&#45;&gt;9 -->
<g id="edge16" class="edge">
<title>16&#45;&gt;9</title>
<path fill="none" stroke="#c0c0c0" stroke-width="2" d="M590.425,-287.8314C586.8898,-279.8771 582.664,-270.369 578.7544,-261.5723"/>
<polygon fill="#c0c0c0" stroke="#c0c0c0" stroke-width="2" points="581.9435,-260.1299 574.6837,-252.4133 575.5468,-262.9729 581.9435,-260.1299"/>
</g>
<!-- 17 -->
<g id="node18" class="node">
<title>17</title>
<path fill="none" stroke="#56d882" stroke-width="2" d="M494,-324C494,-324 393,-324 393,-324 387,-324 381,-318 381,-312 381,-312 381,-300 381,-300 381,-294 387,-288 393,-288 393,-288 494,-288 494,-288 500,-288 506,-294 506,-300 506,-300 506,-312 506,-312 506,-318 500,-324 494,-324"/>
<text text-anchor="middle" x="443.5" y="-303.5" font-family="sans" font-size="10.00" fill="#000000">gencov_prepare_fasta</text>
</g>
<!-- 17&#45;&gt;9 -->
<g id="edge17" class="edge">
<title>17&#45;&gt;9</title>
<path fill="none" stroke="#c0c0c0" stroke-width="2" d="M474.5381,-287.8314C490.2705,-278.6221 509.5611,-267.3301 526.4044,-257.4706"/>
<polygon fill="#c0c0c0" stroke="#c0c0c0" stroke-width="2" points="528.6098,-260.2352 535.4718,-252.1628 525.0735,-254.1941 528.6098,-260.2352"/>
</g>
<!-- 17&#45;&gt;10 -->
<g id="edge22" class="edge">
<title>17&#45;&gt;10</title>
<path fill="none" stroke="#c0c0c0" stroke-width="2" d="M506.3433,-294.0298C577.3762,-280.4998 692.1633,-258.6356 761.8514,-245.3616"/>
<polygon fill="#c0c0c0" stroke="#c0c0c0" stroke-width="2" points="762.627,-248.7769 771.7955,-243.4675 761.3172,-241.9005 762.627,-248.7769"/>
</g>
<!-- 17&#45;&gt;11 -->
<g id="edge27" class="edge">
<title>17&#45;&gt;11</title>
<path fill="none" stroke="#c0c0c0" stroke-width="2" d="M406.1534,-287.8314C386.6231,-278.3302 362.5359,-266.6121 341.8269,-256.5374"/>
<polygon fill="#c0c0c0" stroke="#c0c0c0" stroke-width="2" points="343.1016,-253.2654 332.5781,-252.038 340.0393,-259.56 343.1016,-253.2654"/>
</g>
<!-- 18 -->
<g id="node19" class="node">
<title>18</title>
<path fill="none" stroke="#56d8d8" stroke-width="2" d="M951.5,-396C951.5,-396 883.5,-396 883.5,-396 877.5,-396 871.5,-390 871.5,-384 871.5,-384 871.5,-372 871.5,-372 871.5,-366 877.5,-360 883.5,-360 883.5,-360 951.5,-360 951.5,-360 957.5,-360 963.5,-366 963.5,-372 963.5,-372 963.5,-384 963.5,-384 963.5,-390 957.5,-396 951.5,-396"/>
<text text-anchor="middle" x="917.5" y="-381" font-family="sans" font-size="10.00" fill="#000000">mismatch_bam</text>
<text text-anchor="middle" x="917.5" y="-370" font-family="sans" font-size="10.00" fill="#000000">ED: 2</text>
</g>
<!-- 18&#45;&gt;10 -->
<g id="edge18" class="edge">
<title>18&#45;&gt;10</title>
<path fill="none" stroke="#c0c0c0" stroke-width="2" d="M917.4938,-359.9514C916.6706,-340.644 912.932,-309.8546 898.5,-288 890.5358,-275.9397 878.8735,-265.7636 867.0226,-257.6106"/>
<polygon fill="#c0c0c0" stroke="#c0c0c0" stroke-width="2" points="868.7064,-254.5312 858.4101,-252.0334 864.9015,-260.4068 868.7064,-254.5312"/>
</g>
<!-- 19 -->
<g id="node20" class="node">
<title>19</title>
<path fill="none" stroke="#d86e56" stroke-width="2" d="M1005,-324C1005,-324 958,-324 958,-324 952,-324 946,-318 946,-312 946,-312 946,-300 946,-300 946,-294 952,-288 958,-288 958,-288 1005,-288 1005,-288 1011,-288 1017,-294 1017,-300 1017,-300 1017,-312 1017,-312 1017,-318 1011,-324 1005,-324"/>
<text text-anchor="middle" x="981.5" y="-309" font-family="sans" font-size="10.00" fill="#000000">index_bam</text>
<text text-anchor="middle" x="981.5" y="-298" font-family="sans" font-size="10.00" fill="#000000">ED: 0.2</text>
</g>
<!-- 18&#45;&gt;19 -->
<g id="edge35" class="edge">
<title>18&#45;&gt;19</title>
<path fill="none" stroke="#c0c0c0" stroke-width="2" d="M933.6499,-359.8314C941.1717,-351.3694 950.2565,-341.1489 958.4804,-331.8971"/>
<polygon fill="#c0c0c0" stroke="#c0c0c0" stroke-width="2" points="961.1049,-334.2127 965.1327,-324.4133 955.873,-329.5621 961.1049,-334.2127"/>
</g>
<!-- 19&#45;&gt;10 -->
<g id="edge19" class="edge">
<title>19&#45;&gt;10</title>
<path fill="none" stroke="#c0c0c0" stroke-width="2" d="M945.9908,-290.0209C923.965,-280.1092 895.3417,-267.2288 871.0957,-256.3181"/>
<polygon fill="#c0c0c0" stroke="#c0c0c0" stroke-width="2" points="872.2528,-253.0007 861.6973,-252.0888 869.3802,-259.3842 872.2528,-253.0007"/>
</g>
<!-- 20 -->
<g id="node21" class="node">
<title>20</title>
<path fill="none" stroke="#56d8d8" stroke-width="2" d="M827.5,-396C827.5,-396 759.5,-396 759.5,-396 753.5,-396 747.5,-390 747.5,-384 747.5,-384 747.5,-372 747.5,-372 747.5,-366 753.5,-360 759.5,-360 759.5,-360 827.5,-360 827.5,-360 833.5,-360 839.5,-366 839.5,-372 839.5,-372 839.5,-384 839.5,-384 839.5,-390 833.5,-396 827.5,-396"/>
<text text-anchor="middle" x="793.5" y="-381" font-family="sans" font-size="10.00" fill="#000000">mismatch_bam</text>
<text text-anchor="middle" x="793.5" y="-370" font-family="sans" font-size="10.00" fill="#000000">ED: 2</text>
</g>
<!-- 20&#45;&gt;10 -->
<g id="edge20" class="edge">
<title>20&#45;&gt;10</title>
<path fill="none" stroke="#c0c0c0" stroke-width="2" d="M796.5201,-359.6854C799.5794,-341.4693 804.5536,-312.7437 809.5,-288 811.1678,-279.6568 813.1185,-270.621 814.9564,-262.3712"/>
<polygon fill="#c0c0c0" stroke="#c0c0c0" stroke-width="2" points="818.4074,-262.9782 817.1945,-252.4531 811.5791,-261.4374 818.4074,-262.9782"/>
</g>
<!-- 21 -->
<g id="node22" class="node">
<title>21</title>
<path fill="none" stroke="#d86e56" stroke-width="2" d="M877,-324C877,-324 830,-324 830,-324 824,-324 818,-318 818,-312 818,-312 818,-300 818,-300 818,-294 824,-288 830,-288 830,-288 877,-288 877,-288 883,-288 889,-294 889,-300 889,-300 889,-312 889,-312 889,-318 883,-324 877,-324"/>
<text text-anchor="middle" x="853.5" y="-309" font-family="sans" font-size="10.00" fill="#000000">index_bam</text>
<text text-anchor="middle" x="853.5" y="-298" font-family="sans" font-size="10.00" fill="#000000">ED: 0.2</text>
</g>
<!-- 20&#45;&gt;21 -->
<g id="edge37" class="edge">
<title>20&#45;&gt;21</title>
<path fill="none" stroke="#c0c0c0" stroke-width="2" d="M808.6405,-359.8314C815.6217,-351.454 824.0391,-341.3531 831.6876,-332.1749"/>
<polygon fill="#c0c0c0" stroke="#c0c0c0" stroke-width="2" points="834.4425,-334.3362 838.1556,-324.4133 829.0649,-329.8548 834.4425,-334.3362"/>
</g>
<!-- 21&#45;&gt;10 -->
<g id="edge21" class="edge">
<title>21&#45;&gt;10</title>
<path fill="none" stroke="#c0c0c0" stroke-width="2" d="M845.425,-287.8314C841.8898,-279.8771 837.664,-270.369 833.7544,-261.5723"/>
<polygon fill="#c0c0c0" stroke="#c0c0c0" stroke-width="2" points="836.9435,-260.1299 829.6837,-252.4133 830.5468,-262.9729 836.9435,-260.1299"/>
</g>
<!-- 22 -->
<g id="node23" class="node">
<title>22</title>
<path fill="none" stroke="#56d8d8" stroke-width="2" d="M386.5,-396C386.5,-396 318.5,-396 318.5,-396 312.5,-396 306.5,-390 306.5,-384 306.5,-384 306.5,-372 306.5,-372 306.5,-366 312.5,-360 318.5,-360 318.5,-360 386.5,-360 386.5,-360 392.5,-360 398.5,-366 398.5,-372 398.5,-372 398.5,-384 398.5,-384 398.5,-390 392.5,-396 386.5,-396"/>
<text text-anchor="middle" x="352.5" y="-381" font-family="sans" font-size="10.00" fill="#000000">mismatch_bam</text>
<text text-anchor="middle" x="352.5" y="-370" font-family="sans" font-size="10.00" fill="#000000">ED: 4</text>
</g>
<!-- 22&#45;&gt;11 -->
<g id="edge23" class="edge">
<title>22&#45;&gt;11</title>
<path fill="none" stroke="#c0c0c0" stroke-width="2" d="M350.5222,-359.7821C348.0289,-341.1404 342.7648,-311.6373 332.5,-288 328.4011,-278.5613 322.573,-269.044 316.7516,-260.6844"/>
<polygon fill="#c0c0c0" stroke="#c0c0c0" stroke-width="2" points="319.4718,-258.474 310.7604,-252.4439 313.81,-262.5903 319.4718,-258.474"/>
</g>
<!-- 23 -->
<g id="node24" class="node">
<title>23</title>
<path fill="none" stroke="#d86e56" stroke-width="2" d="M312,-324C312,-324 265,-324 265,-324 259,-324 253,-318 253,-312 253,-312 253,-300 253,-300 253,-294 259,-288 265,-288 265,-288 312,-288 312,-288 318,-288 324,-294 324,-300 324,-300 324,-312 324,-312 324,-318 318,-324 312,-324"/>
<text text-anchor="middle" x="288.5" y="-309" font-family="sans" font-size="10.00" fill="#000000">index_bam</text>
<text text-anchor="middle" x="288.5" y="-298" font-family="sans" font-size="10.00" fill="#000000">ED: 0.4</text>
</g>
<!-- 22&#45;&gt;23 -->
<g id="edge39" class="edge">
<title>22&#45;&gt;23</title>
<path fill="none" stroke="#c0c0c0" stroke-width="2" d="M336.3501,-359.8314C328.8283,-351.3694 319.7435,-341.1489 311.5196,-331.8971"/>
<polygon fill="#c0c0c0" stroke="#c0c0c0" stroke-width="2" points="314.127,-329.5621 304.8673,-324.4133 308.8951,-334.2127 314.127,-329.5621"/>
</g>
<!-- 23&#45;&gt;11 -->
<g id="edge24" class="edge">
<title>23&#45;&gt;11</title>
<path fill="none" stroke="#c0c0c0" stroke-width="2" d="M290.2664,-287.8314C291.015,-280.131 291.9053,-270.9743 292.7373,-262.4166"/>
<polygon fill="#c0c0c0" stroke="#c0c0c0" stroke-width="2" points="296.2256,-262.7051 293.7098,-252.4133 289.2585,-262.0276 296.2256,-262.7051"/>
</g>
<!-- 24 -->
<g id="node25" class="node">
<title>24</title>
<path fill="none" stroke="#56d8d8" stroke-width="2" d="M273.5,-396C273.5,-396 205.5,-396 205.5,-396 199.5,-396 193.5,-390 193.5,-384 193.5,-384 193.5,-372 193.5,-372 193.5,-366 199.5,-360 205.5,-360 205.5,-360 273.5,-360 273.5,-360 279.5,-360 285.5,-366 285.5,-372 285.5,-372 285.5,-384 285.5,-384 285.5,-390 279.5,-396 273.5,-396"/>
<text text-anchor="middle" x="239.5" y="-381" font-family="sans" font-size="10.00" fill="#000000">mismatch_bam</text>
<text text-anchor="middle" x="239.5" y="-370" font-family="sans" font-size="10.00" fill="#000000">ED: 4</text>
</g>
<!-- 24&#45;&gt;11 -->
<g id="edge25" class="edge">
<title>24&#45;&gt;11</title>
<path fill="none" stroke="#c0c0c0" stroke-width="2" d="M193.5514,-359.8539C178.3255,-351.3763 163.0872,-339.629 154.5,-324 146.7953,-309.9772 145.4324,-301.1825 154.5,-288 164.3702,-273.6506 201.9844,-259.6484 235.8807,-249.4992"/>
<polygon fill="#c0c0c0" stroke="#c0c0c0" stroke-width="2" points="237.1611,-252.7716 245.7798,-246.6096 235.1996,-246.052 237.1611,-252.7716"/>
</g>
<!-- 25 -->
<g id="node26" class="node">
<title>25</title>
<path fill="none" stroke="#d86e56" stroke-width="2" d="M223,-324C223,-324 176,-324 176,-324 170,-324 164,-318 164,-312 164,-312 164,-300 164,-300 164,-294 170,-288 176,-288 176,-288 223,-288 223,-288 229,-288 235,-294 235,-300 235,-300 235,-312 235,-312 235,-318 229,-324 223,-324"/>
<text text-anchor="middle" x="199.5" y="-309" font-family="sans" font-size="10.00" fill="#000000">index_bam</text>
<text text-anchor="middle" x="199.5" y="-298" font-family="sans" font-size="10.00" fill="#000000">ED: 0.4</text>
</g>
<!-- 24&#45;&gt;25 -->
<g id="edge41" class="edge">
<title>24&#45;&gt;25</title>
<path fill="none" stroke="#c0c0c0" stroke-width="2" d="M229.4063,-359.8314C224.9403,-351.7925 219.5925,-342.1666 214.6621,-333.2918"/>
<polygon fill="#c0c0c0" stroke="#c0c0c0" stroke-width="2" points="217.6456,-331.4551 209.7296,-324.4133 211.5265,-334.8546 217.6456,-331.4551"/>
</g>
<!-- 25&#45;&gt;11 -->
<g id="edge26" class="edge">
<title>25&#45;&gt;11</title>
<path fill="none" stroke="#c0c0c0" stroke-width="2" d="M223.7249,-287.8314C235.6628,-278.8779 250.2256,-267.9558 263.106,-258.2955"/>
<polygon fill="#c0c0c0" stroke="#c0c0c0" stroke-width="2" points="265.3829,-260.9629 271.2829,-252.1628 261.1829,-255.3629 265.3829,-260.9629"/>
</g>
<!-- 26 -->
<g id="node27" class="node">
<title>26</title>
<path fill="none" stroke="#569ad8" stroke-width="2" d="M95,-324C95,-324 12,-324 12,-324 6,-324 0,-318 0,-312 0,-312 0,-300 0,-300 0,-294 6,-288 12,-288 12,-288 95,-288 95,-288 101,-288 107,-294 107,-300 107,-300 107,-312 107,-312 107,-318 101,-324 95,-324"/>
<text text-anchor="middle" x="53.5" y="-303.5" font-family="sans" font-size="10.00" fill="#000000">freebayes_parallel</text>
</g>
<!-- 26&#45;&gt;12 -->
<g id="edge28" class="edge">
<title>26&#45;&gt;12</title>
<path fill="none" stroke="#c0c0c0" stroke-width="2" d="M71.164,-287.8314C79.4732,-279.2848 89.5264,-268.9443 98.5918,-259.6198"/>
<polygon fill="#c0c0c0" stroke="#c0c0c0" stroke-width="2" points="101.1369,-262.023 105.5982,-252.4133 96.1179,-257.1435 101.1369,-262.023"/>
</g>
<!-- 27 -->
<g id="node28" class="node">
<title>27</title>
<path fill="none" stroke="#56d8c1" stroke-width="2" d="M579.5,-468C579.5,-468 493.5,-468 493.5,-468 487.5,-468 481.5,-462 481.5,-456 481.5,-456 481.5,-444 481.5,-444 481.5,-438 487.5,-432 493.5,-432 493.5,-432 579.5,-432 579.5,-432 585.5,-432 591.5,-438 591.5,-444 591.5,-444 591.5,-456 591.5,-456 591.5,-462 585.5,-468 579.5,-468"/>
<text text-anchor="middle" x="536.5" y="-447.5" font-family="sans" font-size="10.00" fill="#000000">remove_duplicates</text>
</g>
<!-- 27&#45;&gt;13 -->
<g id="edge29" class="edge">
<title>27&#45;&gt;13</title>
<path fill="none" stroke="#c0c0c0" stroke-width="2" d="M573.5943,-431.8314C592.9926,-422.3302 616.917,-410.6121 637.4862,-400.5374"/>
<polygon fill="#c0c0c0" stroke="#c0c0c0" stroke-width="2" points="639.2314,-403.5799 646.6724,-396.038 636.1522,-397.2935 639.2314,-403.5799"/>
</g>
<!-- 27&#45;&gt;18 -->
<g id="edge34" class="edge">
<title>27&#45;&gt;18</title>
<path fill="none" stroke="#c0c0c0" stroke-width="2" d="M591.7205,-441.8752C654.2888,-432.3377 759.1798,-415.3445 848.5,-396 852.6517,-395.1009 856.93,-394.1194 861.2264,-393.0938"/>
<polygon fill="#c0c0c0" stroke="#c0c0c0" stroke-width="2" points="862.3553,-396.4207 871.2333,-390.6387 860.6873,-389.6223 862.3553,-396.4207"/>
</g>
<!-- 27&#45;&gt;22 -->
<g id="edge38" class="edge">
<title>27&#45;&gt;22</title>
<path fill="none" stroke="#c0c0c0" stroke-width="2" d="M490.069,-431.8314C465.132,-422.0734 434.2191,-409.977 408.0174,-399.7242"/>
<polygon fill="#c0c0c0" stroke="#c0c0c0" stroke-width="2" points="409.1849,-396.4227 398.5971,-396.038 406.6341,-402.9414 409.1849,-396.4227"/>
</g>
<!-- 27&#45;&gt;26 -->
<g id="edge43" class="edge">
<title>27&#45;&gt;26</title>
<path fill="none" stroke="#c0c0c0" stroke-width="2" d="M481.2531,-438.5374C469.4761,-436.2439 457.0945,-433.9446 445.5,-432 330.0148,-412.6308 290.3828,-446.0084 184.5,-396 163.1702,-385.926 164.4475,-374.0512 145.5,-360 130.4531,-348.8413 112.9342,-338.0704 97.2457,-329.1228"/>
<polygon fill="#c0c0c0" stroke="#c0c0c0" stroke-width="2" points="98.6862,-325.9178 88.2527,-324.0762 95.2605,-332.0223 98.6862,-325.9178"/>
</g>
<!-- 28 -->
<g id="node29" class="node">
<title>28</title>
<path fill="none" stroke="#56d8c1" stroke-width="2" d="M424.5,-468C424.5,-468 338.5,-468 338.5,-468 332.5,-468 326.5,-462 326.5,-456 326.5,-456 326.5,-444 326.5,-444 326.5,-438 332.5,-432 338.5,-432 338.5,-432 424.5,-432 424.5,-432 430.5,-432 436.5,-438 436.5,-444 436.5,-444 436.5,-456 436.5,-456 436.5,-462 430.5,-468 424.5,-468"/>
<text text-anchor="middle" x="381.5" y="-447.5" font-family="sans" font-size="10.00" fill="#000000">remove_duplicates</text>
</g>
<!-- 28&#45;&gt;15 -->
<g id="edge31" class="edge">
<title>28&#45;&gt;15</title>
<path fill="none" stroke="#c0c0c0" stroke-width="2" d="M420.1084,-431.8314C440.3893,-422.2874 465.4238,-410.5065 486.8971,-400.4013"/>
<polygon fill="#c0c0c0" stroke="#c0c0c0" stroke-width="2" points="488.6114,-403.4629 496.1693,-396.038 485.6308,-397.1291 488.6114,-403.4629"/>
</g>
<!-- 28&#45;&gt;20 -->
<g id="edge36" class="edge">
<title>28&#45;&gt;20</title>
<path fill="none" stroke="#c0c0c0" stroke-width="2" d="M436.7431,-438.5147C448.5204,-436.2228 460.903,-433.9299 472.5,-432 586.9638,-412.9518 620.4018,-422.1254 737.3896,-396.0274"/>
<polygon fill="#c0c0c0" stroke="#c0c0c0" stroke-width="2" points="738.481,-399.3687 747.4578,-393.7413 736.931,-392.5425 738.481,-399.3687"/>
</g>
<!-- 28&#45;&gt;24 -->
<g id="edge40" class="edge">
<title>28&#45;&gt;24</title>
<path fill="none" stroke="#c0c0c0" stroke-width="2" d="M345.6674,-431.8314C327.0843,-422.4089 304.2011,-410.8062 284.4435,-400.7883"/>
<polygon fill="#c0c0c0" stroke="#c0c0c0" stroke-width="2" points="285.823,-397.5635 275.3211,-396.1628 282.6573,-403.8069 285.823,-397.5635"/>
</g>
<!-- 28&#45;&gt;26 -->
<g id="edge44" class="edge">
<title>28&#45;&gt;26</title>
<path fill="none" stroke="#c0c0c0" stroke-width="2" d="M326.2866,-438.5727C263.2771,-425.2911 166.9075,-404.1537 151.5,-396 143.1841,-391.5992 105.7624,-356.3495 79.6486,-331.2976"/>
<polygon fill="#c0c0c0" stroke="#c0c0c0" stroke-width="2" points="81.9188,-328.6249 72.2848,-324.2163 77.0668,-333.6706 81.9188,-328.6249"/>
</g>
<!-- 29 -->
<g id="node30" class="node">
<title>29</title>
<path fill="none" stroke="#80d856" stroke-width="2" stroke-dasharray="5,2" d="M271.5,-468C271.5,-468 171.5,-468 171.5,-468 165.5,-468 159.5,-462 159.5,-456 159.5,-456 159.5,-444 159.5,-444 159.5,-438 165.5,-432 171.5,-432 171.5,-432 271.5,-432 271.5,-432 277.5,-432 283.5,-438 283.5,-444 283.5,-444 283.5,-456 283.5,-456 283.5,-462 277.5,-468 271.5,-468"/>
<text text-anchor="middle" x="221.5" y="-447.5" font-family="sans" font-size="10.00" fill="#000000">index_fasta_samtools</text>
</g>
<!-- 29&#45;&gt;17 -->
<g id="edge33" class="edge">
<title>29&#45;&gt;17</title>
<path fill="none" stroke="#c0c0c0" stroke-width="2" d="M283.5116,-438.0978C330.1792,-428.0449 389.1274,-412.6557 407.5,-396 425.1494,-379.9999 434.2876,-354.1756 438.9306,-334.2842"/>
<polygon fill="#c0c0c0" stroke="#c0c0c0" stroke-width="2" points="442.4129,-334.7289 441.0217,-324.2258 435.5595,-333.304 442.4129,-334.7289"/>
</g>
<!-- 30 -->
<g id="node31" class="node">
<title>30</title>
<path fill="none" stroke="#56d89a" stroke-width="2" d="M87.5,-396C87.5,-396 19.5,-396 19.5,-396 13.5,-396 7.5,-390 7.5,-384 7.5,-384 7.5,-372 7.5,-372 7.5,-366 13.5,-360 19.5,-360 19.5,-360 87.5,-360 87.5,-360 93.5,-360 99.5,-366 99.5,-372 99.5,-372 99.5,-384 99.5,-384 99.5,-390 93.5,-396 87.5,-396"/>
<text text-anchor="middle" x="53.5" y="-375.5" font-family="sans" font-size="10.00" fill="#000000">freebayes_prep</text>
</g>
<!-- 29&#45;&gt;30 -->
<g id="edge47" class="edge">
<title>29&#45;&gt;30</title>
<path fill="none" stroke="#c0c0c0" stroke-width="2" d="M179.1065,-431.8314C156.5376,-422.159 128.6079,-410.1891 104.8204,-399.9944"/>
<polygon fill="#c0c0c0" stroke="#c0c0c0" stroke-width="2" points="106.1588,-396.7602 95.5886,-396.038 103.4014,-403.1943 106.1588,-396.7602"/>
</g>
<!-- 30&#45;&gt;26 -->
<g id="edge42" class="edge">
<title>30&#45;&gt;26</title>
<path fill="none" stroke="#c0c0c0" stroke-width="2" d="M53.5,-359.8314C53.5,-352.131 53.5,-342.9743 53.5,-334.4166"/>
<polygon fill="#c0c0c0" stroke="#c0c0c0" stroke-width="2" points="57.0001,-334.4132 53.5,-324.4133 50.0001,-334.4133 57.0001,-334.4132"/>
</g>
<!-- 31 -->
<g id="node32" class="node">
<title>31</title>
<path fill="none" stroke="#56c1d8" stroke-width="2" d="M555.5,-540C555.5,-540 517.5,-540 517.5,-540 511.5,-540 505.5,-534 505.5,-528 505.5,-528 505.5,-516 505.5,-516 505.5,-510 511.5,-504 517.5,-504 517.5,-504 555.5,-504 555.5,-504 561.5,-504 567.5,-510 567.5,-516 567.5,-516 567.5,-528 567.5,-528 567.5,-534 561.5,-540 555.5,-540"/>
<text text-anchor="middle" x="536.5" y="-519.5" font-family="sans" font-size="10.00" fill="#000000">sort_bam</text>
</g>
<!-- 31&#45;&gt;27 -->
<g id="edge45" class="edge">
<title>31&#45;&gt;27</title>
<path fill="none" stroke="#c0c0c0" stroke-width="2" d="M536.5,-503.8314C536.5,-496.131 536.5,-486.9743 536.5,-478.4166"/>
<polygon fill="#c0c0c0" stroke="#c0c0c0" stroke-width="2" points="540.0001,-478.4132 536.5,-468.4133 533.0001,-478.4133 540.0001,-478.4132"/>
</g>
<!-- 32 -->
<g id="node33" class="node">
<title>32</title>
<path fill="none" stroke="#56c1d8" stroke-width="2" d="M400.5,-540C400.5,-540 362.5,-540 362.5,-540 356.5,-540 350.5,-534 350.5,-528 350.5,-528 350.5,-516 350.5,-516 350.5,-510 356.5,-504 362.5,-504 362.5,-504 400.5,-504 400.5,-504 406.5,-504 412.5,-510 412.5,-516 412.5,-516 412.5,-528 412.5,-528 412.5,-534 406.5,-540 400.5,-540"/>
<text text-anchor="middle" x="381.5" y="-519.5" font-family="sans" font-size="10.00" fill="#000000">sort_bam</text>
</g>
<!-- 32&#45;&gt;28 -->
<g id="edge46" class="edge">
<title>32&#45;&gt;28</title>
<path fill="none" stroke="#c0c0c0" stroke-width="2" d="M381.5,-503.8314C381.5,-496.131 381.5,-486.9743 381.5,-478.4166"/>
<polygon fill="#c0c0c0" stroke="#c0c0c0" stroke-width="2" points="385.0001,-478.4132 381.5,-468.4133 378.0001,-478.4133 385.0001,-478.4132"/>
</g>
<!-- 33 -->
<g id="node34" class="node">
<title>33</title>
<path fill="none" stroke="#d85656" stroke-width="2" d="M593,-612C593,-612 480,-612 480,-612 474,-612 468,-606 468,-600 468,-600 468,-588 468,-588 468,-582 474,-576 480,-576 480,-576 593,-576 593,-576 599,-576 605,-582 605,-588 605,-588 605,-600 605,-600 605,-606 599,-612 593,-612"/>
<text text-anchor="middle" x="536.5" y="-597" font-family="sans" font-size="10.00" fill="#000000">map</text>
<text text-anchor="middle" x="536.5" y="-586" font-family="sans" font-size="10.00" fill="#000000">S: QL&#45;1681&#45;19_S46_L006</text>
</g>
<!-- 33&#45;&gt;31 -->
<g id="edge48" class="edge">
<title>33&#45;&gt;31</title>
<path fill="none" stroke="#c0c0c0" stroke-width="2" d="M536.5,-575.8314C536.5,-568.131 536.5,-558.9743 536.5,-550.4166"/>
<polygon fill="#c0c0c0" stroke="#c0c0c0" stroke-width="2" points="540.0001,-550.4132 536.5,-540.4133 533.0001,-550.4133 540.0001,-550.4132"/>
</g>
<!-- 34 -->
<g id="node35" class="node">
<title>34</title>
<path fill="none" stroke="#d85656" stroke-width="2" d="M438,-612C438,-612 325,-612 325,-612 319,-612 313,-606 313,-600 313,-600 313,-588 313,-588 313,-582 319,-576 325,-576 325,-576 438,-576 438,-576 444,-576 450,-582 450,-588 450,-588 450,-600 450,-600 450,-606 444,-612 438,-612"/>
<text text-anchor="middle" x="381.5" y="-597" font-family="sans" font-size="10.00" fill="#000000">map</text>
<text text-anchor="middle" x="381.5" y="-586" font-family="sans" font-size="10.00" fill="#000000">S: QL&#45;1681&#45;21_S47_L006</text>
</g>
<!-- 34&#45;&gt;32 -->
<g id="edge49" class="edge">
<title>34&#45;&gt;32</title>
<path fill="none" stroke="#c0c0c0" stroke-width="2" d="M381.5,-575.8314C381.5,-568.131 381.5,-558.9743 381.5,-550.4166"/>
<polygon fill="#c0c0c0" stroke="#c0c0c0" stroke-width="2" points="385.0001,-550.4132 381.5,-540.4133 378.0001,-550.4133 385.0001,-550.4132"/>
</g>
<!-- 35 -->
<g id="node36" class="node">
<title>35</title>
<path fill="none" stroke="#5682d8" stroke-width="2" stroke-dasharray="5,2" d="M496,-684C496,-684 421,-684 421,-684 415,-684 409,-678 409,-672 409,-672 409,-660 409,-660 409,-654 415,-648 421,-648 421,-648 496,-648 496,-648 502,-648 508,-654 508,-660 508,-660 508,-672 508,-672 508,-678 502,-684 496,-684"/>
<text text-anchor="middle" x="458.5" y="-663.5" font-family="sans" font-size="10.00" fill="#000000">index_fasta_bwa</text>
</g>
<!-- 35&#45;&gt;33 -->
<g id="edge50" class="edge">
<title>35&#45;&gt;33</title>
<path fill="none" stroke="#c0c0c0" stroke-width="2" d="M478.1827,-647.8314C487.6051,-639.1337 499.0401,-628.5783 509.2796,-619.1265"/>
<polygon fill="#c0c0c0" stroke="#c0c0c0" stroke-width="2" points="511.8495,-621.5175 516.8236,-612.1628 507.1016,-616.3738 511.8495,-621.5175"/>
</g>
<!-- 35&#45;&gt;34 -->
<g id="edge51" class="edge">
<title>35&#45;&gt;34</title>
<path fill="none" stroke="#c0c0c0" stroke-width="2" d="M439.0696,-647.8314C429.768,-639.1337 418.4796,-628.5783 408.3714,-619.1265"/>
<polygon fill="#c0c0c0" stroke="#c0c0c0" stroke-width="2" points="410.6189,-616.4363 400.9241,-612.1628 405.8379,-621.5493 410.6189,-616.4363"/>
</g>
</g>
</svg>
