<?xml version="1.0" encoding="UTF-8" standalone="no"?>
<!DOCTYPE svg PUBLIC "-//W3C//DTD SVG 1.1//EN"
 "http://www.w3.org/Graphics/SVG/1.1/DTD/svg11.dtd">
<!-- Generated by graphviz version 2.40.1 (20161225.0304)
 -->
<!-- Title: snakemake_dag Pages: 1 -->
<svg width="1126pt" height="692pt"
 viewBox="0.00 0.00 1126.00 692.00" xmlns="http://www.w3.org/2000/svg" xmlns:xlink="http://www.w3.org/1999/xlink">
<g id="graph0" class="graph" transform="scale(1 1) rotate(0) translate(4 688)">
<title>snakemake_dag</title>
<polygon fill="#ffffff" stroke="transparent" points="-4,4 -4,-688 1122,-688 1122,4 -4,4"/>
<!-- 0 -->
<g id="node1" class="node">
<title>0</title>
<path fill="none" stroke="#d86656" stroke-width="2" d="M439,-36C439,-36 386,-36 386,-36 380,-36 374,-30 374,-24 374,-24 374,-12 374,-12 374,-6 380,0 386,0 386,0 439,0 439,0 445,0 451,-6 451,-12 451,-12 451,-24 451,-24 451,-30 445,-36 439,-36"/>
<text text-anchor="middle" x="412.5" y="-21" font-family="sans" font-size="10.00" fill="#000000">plotting</text>
<text text-anchor="middle" x="412.5" y="-10" font-family="sans" font-size="10.00" fill="#000000">synteny: .ZF.</text>
</g>
<!-- 1 -->
<g id="node2" class="node">
<title>1</title>
<path fill="none" stroke="#b6d856" stroke-width="2" d="M543,-108C543,-108 434,-108 434,-108 428,-108 422,-102 422,-96 422,-96 422,-84 422,-84 422,-78 428,-72 434,-72 434,-72 543,-72 543,-72 549,-72 555,-78 555,-84 555,-84 555,-96 555,-96 555,-102 549,-108 543,-108"/>
<text text-anchor="middle" x="488.5" y="-87.5" font-family="sans" font-size="10.00" fill="#000000">calculate_ratio_synteny</text>
</g>
<!-- 1&#45;&gt;0 -->
<g id="edge1" class="edge">
<title>1&#45;&gt;0</title>
<path fill="none" stroke="#c0c0c0" stroke-width="2" d="M469.322,-71.8314C460.1412,-63.1337 448.9994,-52.5783 439.0224,-43.1265"/>
<polygon fill="#c0c0c0" stroke="#c0c0c0" stroke-width="2" points="441.3385,-40.4995 431.6719,-36.1628 436.5243,-45.5811 441.3385,-40.4995"/>
</g>
<!-- 2 -->
<g id="node3" class="node">
<title>2</title>
<path fill="none" stroke="#b6d856" stroke-width="2" d="M392,-108C392,-108 283,-108 283,-108 277,-108 271,-102 271,-96 271,-96 271,-84 271,-84 271,-78 277,-72 283,-72 283,-72 392,-72 392,-72 398,-72 404,-78 404,-84 404,-84 404,-96 404,-96 404,-102 398,-108 392,-108"/>
<text text-anchor="middle" x="337.5" y="-87.5" font-family="sans" font-size="10.00" fill="#000000">calculate_ratio_synteny</text>
</g>
<!-- 2&#45;&gt;0 -->
<g id="edge2" class="edge">
<title>2&#45;&gt;0</title>
<path fill="none" stroke="#c0c0c0" stroke-width="2" d="M356.4257,-71.8314C365.4857,-63.1337 376.4809,-52.5783 386.3265,-43.1265"/>
<polygon fill="#c0c0c0" stroke="#c0c0c0" stroke-width="2" points="388.7904,-45.613 393.5804,-36.1628 383.9426,-40.5633 388.7904,-45.613"/>
</g>
<!-- 3 -->
<g id="node4" class="node">
<title>3</title>
<path fill="none" stroke="#b6d856" stroke-width="2" d="M694,-108C694,-108 585,-108 585,-108 579,-108 573,-102 573,-96 573,-96 573,-84 573,-84 573,-78 579,-72 585,-72 585,-72 694,-72 694,-72 700,-72 706,-78 706,-84 706,-84 706,-96 706,-96 706,-102 700,-108 694,-108"/>
<text text-anchor="middle" x="639.5" y="-87.5" font-family="sans" font-size="10.00" fill="#000000">calculate_ratio_synteny</text>
</g>
<!-- 3&#45;&gt;0 -->
<g id="edge3" class="edge">
<title>3&#45;&gt;0</title>
<path fill="none" stroke="#c0c0c0" stroke-width="2" d="M582.5113,-71.9243C545.0572,-60.0446 496.5803,-44.6687 460.9806,-33.3771"/>
<polygon fill="#c0c0c0" stroke="#c0c0c0" stroke-width="2" points="461.8912,-29.9942 451.301,-30.3069 459.7748,-36.6666 461.8912,-29.9942"/>
</g>
<!-- 4 -->
<g id="node5" class="node">
<title>4</title>
<path fill="none" stroke="#d8ac56" stroke-width="2" d="M241,-108C241,-108 82,-108 82,-108 76,-108 70,-102 70,-96 70,-96 70,-84 70,-84 70,-78 76,-72 82,-72 82,-72 241,-72 241,-72 247,-72 253,-78 253,-84 253,-84 253,-96 253,-96 253,-102 247,-108 241,-108"/>
<text text-anchor="middle" x="161.5" y="-87.5" font-family="sans" font-size="10.00" fill="#000000">calculate_heterozygosity_synteny</text>
</g>
<!-- 4&#45;&gt;0 -->
<g id="edge4" class="edge">
<title>4&#45;&gt;0</title>
<path fill="none" stroke="#c0c0c0" stroke-width="2" d="M224.5139,-71.9243C267.7545,-59.5206 324.282,-43.3055 364.0167,-31.9076"/>
<polygon fill="#c0c0c0" stroke="#c0c0c0" stroke-width="2" points="365.0913,-35.2405 373.7386,-29.1188 363.1612,-28.5119 365.0913,-35.2405"/>
</g>
<!-- 5 -->
<g id="node6" class="node">
<title>5</title>
<path fill="none" stroke="#56b1d8" stroke-width="2" d="M542,-180C542,-180 435,-180 435,-180 429,-180 423,-174 423,-168 423,-168 423,-156 423,-156 423,-150 429,-144 435,-144 435,-144 542,-144 542,-144 548,-144 554,-150 554,-156 554,-156 554,-168 554,-168 554,-174 548,-180 542,-180"/>
<text text-anchor="middle" x="488.5" y="-165" font-family="sans" font-size="10.00" fill="#000000">matchScaffold2Chr_cov</text>
<text text-anchor="middle" x="488.5" y="-154" font-family="sans" font-size="10.00" fill="#000000">ED: 0.0</text>
</g>
<!-- 5&#45;&gt;1 -->
<g id="edge5" class="edge">
<title>5&#45;&gt;1</title>
<path fill="none" stroke="#c0c0c0" stroke-width="2" d="M488.5,-143.8314C488.5,-136.131 488.5,-126.9743 488.5,-118.4166"/>
<polygon fill="#c0c0c0" stroke="#c0c0c0" stroke-width="2" points="492.0001,-118.4132 488.5,-108.4133 485.0001,-118.4133 492.0001,-118.4132"/>
</g>
<!-- 6 -->
<g id="node7" class="node">
<title>6</title>
<path fill="none" stroke="#56b1d8" stroke-width="2" d="M391,-180C391,-180 284,-180 284,-180 278,-180 272,-174 272,-168 272,-168 272,-156 272,-156 272,-150 278,-144 284,-144 284,-144 391,-144 391,-144 397,-144 403,-150 403,-156 403,-156 403,-168 403,-168 403,-174 397,-180 391,-180"/>
<text text-anchor="middle" x="337.5" y="-165" font-family="sans" font-size="10.00" fill="#000000">matchScaffold2Chr_cov</text>
<text text-anchor="middle" x="337.5" y="-154" font-family="sans" font-size="10.00" fill="#000000">ED: 0.2</text>
</g>
<!-- 6&#45;&gt;2 -->
<g id="edge6" class="edge">
<title>6&#45;&gt;2</title>
<path fill="none" stroke="#c0c0c0" stroke-width="2" d="M337.5,-143.8314C337.5,-136.131 337.5,-126.9743 337.5,-118.4166"/>
<polygon fill="#c0c0c0" stroke="#c0c0c0" stroke-width="2" points="341.0001,-118.4132 337.5,-108.4133 334.0001,-118.4133 341.0001,-118.4132"/>
</g>
<!-- 7 -->
<g id="node8" class="node">
<title>7</title>
<path fill="none" stroke="#56b1d8" stroke-width="2" d="M693,-180C693,-180 586,-180 586,-180 580,-180 574,-174 574,-168 574,-168 574,-156 574,-156 574,-150 580,-144 586,-144 586,-144 693,-144 693,-144 699,-144 705,-150 705,-156 705,-156 705,-168 705,-168 705,-174 699,-180 693,-180"/>
<text text-anchor="middle" x="639.5" y="-165" font-family="sans" font-size="10.00" fill="#000000">matchScaffold2Chr_cov</text>
<text text-anchor="middle" x="639.5" y="-154" font-family="sans" font-size="10.00" fill="#000000">ED: 0.4</text>
</g>
<!-- 7&#45;&gt;3 -->
<g id="edge7" class="edge">
<title>7&#45;&gt;3</title>
<path fill="none" stroke="#c0c0c0" stroke-width="2" d="M639.5,-143.8314C639.5,-136.131 639.5,-126.9743 639.5,-118.4166"/>
<polygon fill="#c0c0c0" stroke="#c0c0c0" stroke-width="2" points="643.0001,-118.4132 639.5,-108.4133 636.0001,-118.4133 643.0001,-118.4132"/>
</g>
<!-- 8 -->
<g id="node9" class="node">
<title>8</title>
<path fill="none" stroke="#56c1d8" stroke-width="2" d="M236.5,-180C236.5,-180 86.5,-180 86.5,-180 80.5,-180 74.5,-174 74.5,-168 74.5,-168 74.5,-156 74.5,-156 74.5,-150 80.5,-144 86.5,-144 86.5,-144 236.5,-144 236.5,-144 242.5,-144 248.5,-150 248.5,-156 248.5,-156 248.5,-168 248.5,-168 248.5,-174 242.5,-180 236.5,-180"/>
<text text-anchor="middle" x="161.5" y="-165" font-family="sans" font-size="10.00" fill="#000000">matchScaffold2Chr_snp</text>
<text text-anchor="middle" x="161.5" y="-154" font-family="sans" font-size="10.00" fill="#000000">snp_statistic: diffHeterozygosity</text>
</g>
<!-- 8&#45;&gt;4 -->
<g id="edge8" class="edge">
<title>8&#45;&gt;4</title>
<path fill="none" stroke="#c0c0c0" stroke-width="2" d="M161.5,-143.8314C161.5,-136.131 161.5,-126.9743 161.5,-118.4166"/>
<polygon fill="#c0c0c0" stroke="#c0c0c0" stroke-width="2" points="165.0001,-118.4132 161.5,-108.4133 158.0001,-118.4133 165.0001,-118.4132"/>
</g>
<!-- 9 -->
<g id="node10" class="node">
<title>9</title>
<path fill="none" stroke="#61d856" stroke-width="2" d="M492,-252C492,-252 407,-252 407,-252 401,-252 395,-246 395,-240 395,-240 395,-228 395,-228 395,-222 401,-216 407,-216 407,-216 492,-216 492,-216 498,-216 504,-222 504,-228 504,-228 504,-240 504,-240 504,-246 498,-252 492,-252"/>
<text text-anchor="middle" x="449.5" y="-231.5" font-family="sans" font-size="10.00" fill="#000000">matchScaffold2Chr</text>
</g>
<!-- 9&#45;&gt;5 -->
<g id="edge9" class="edge">
<title>9&#45;&gt;5</title>
<path fill="none" stroke="#c0c0c0" stroke-width="2" d="M459.3413,-215.8314C463.6957,-207.7925 468.9098,-198.1666 473.7169,-189.2918"/>
<polygon fill="#c0c0c0" stroke="#c0c0c0" stroke-width="2" points="476.8408,-190.8732 478.5261,-180.4133 470.6857,-187.5392 476.8408,-190.8732"/>
</g>
<!-- 9&#45;&gt;6 -->
<g id="edge11" class="edge">
<title>9&#45;&gt;6</title>
<path fill="none" stroke="#c0c0c0" stroke-width="2" d="M421.2377,-215.8314C407.0448,-206.7074 389.6718,-195.539 374.4364,-185.7449"/>
<polygon fill="#c0c0c0" stroke="#c0c0c0" stroke-width="2" points="376.0578,-182.6263 365.7533,-180.1628 372.2724,-188.5146 376.0578,-182.6263"/>
</g>
<!-- 9&#45;&gt;7 -->
<g id="edge13" class="edge">
<title>9&#45;&gt;7</title>
<path fill="none" stroke="#c0c0c0" stroke-width="2" d="M497.445,-215.8314C523.3082,-206.0306 555.3962,-193.8709 582.528,-183.5894"/>
<polygon fill="#c0c0c0" stroke="#c0c0c0" stroke-width="2" points="583.7889,-186.8545 591.8997,-180.038 581.3084,-180.3087 583.7889,-186.8545"/>
</g>
<!-- 9&#45;&gt;8 -->
<g id="edge15" class="edge">
<title>9&#45;&gt;8</title>
<path fill="none" stroke="#c0c0c0" stroke-width="2" d="M394.9908,-220.3727C352.2729,-209.6932 292.1472,-194.6618 243.6082,-182.527"/>
<polygon fill="#c0c0c0" stroke="#c0c0c0" stroke-width="2" points="244.3009,-179.0926 233.7506,-180.0626 242.6031,-185.8836 244.3009,-179.0926"/>
</g>
<!-- 10 -->
<g id="node11" class="node">
<title>10</title>
<path fill="none" stroke="#d88d56" stroke-width="2" d="M730,-252C730,-252 655,-252 655,-252 649,-252 643,-246 643,-240 643,-240 643,-228 643,-228 643,-222 649,-216 655,-216 655,-216 730,-216 730,-216 736,-216 742,-222 742,-228 742,-228 742,-240 742,-240 742,-246 736,-252 730,-252"/>
<text text-anchor="middle" x="692.5" y="-237" font-family="sans" font-size="10.00" fill="#000000">gencov_bedtools</text>
<text text-anchor="middle" x="692.5" y="-226" font-family="sans" font-size="10.00" fill="#000000">V: 0.0</text>
</g>
<!-- 10&#45;&gt;5 -->
<g id="edge10" class="edge">
<title>10&#45;&gt;5</title>
<path fill="none" stroke="#c0c0c0" stroke-width="2" d="M642.8568,-216.4789C614.6552,-206.5254 579.1275,-193.9862 549.268,-183.4475"/>
<polygon fill="#c0c0c0" stroke="#c0c0c0" stroke-width="2" points="550.3838,-180.1298 539.789,-180.102 548.054,-186.7307 550.3838,-180.1298"/>
</g>
<!-- 11 -->
<g id="node12" class="node">
<title>11</title>
<path fill="none" stroke="#d88d56" stroke-width="2" d="M301,-252C301,-252 226,-252 226,-252 220,-252 214,-246 214,-240 214,-240 214,-228 214,-228 214,-222 220,-216 226,-216 226,-216 301,-216 301,-216 307,-216 313,-222 313,-228 313,-228 313,-240 313,-240 313,-246 307,-252 301,-252"/>
<text text-anchor="middle" x="263.5" y="-237" font-family="sans" font-size="10.00" fill="#000000">gencov_bedtools</text>
<text text-anchor="middle" x="263.5" y="-226" font-family="sans" font-size="10.00" fill="#000000">V: 0.2</text>
</g>
<!-- 11&#45;&gt;6 -->
<g id="edge12" class="edge">
<title>11&#45;&gt;6</title>
<path fill="none" stroke="#c0c0c0" stroke-width="2" d="M282.1733,-215.8314C291.0249,-207.219 301.7486,-196.7851 311.3895,-187.4048"/>
<polygon fill="#c0c0c0" stroke="#c0c0c0" stroke-width="2" points="314.1061,-189.645 318.8326,-180.1628 309.2246,-184.6279 314.1061,-189.645"/>
</g>
<!-- 12 -->
<g id="node13" class="node">
<title>12</title>
<path fill="none" stroke="#d88d56" stroke-width="2" d="M960,-252C960,-252 885,-252 885,-252 879,-252 873,-246 873,-240 873,-240 873,-228 873,-228 873,-222 879,-216 885,-216 885,-216 960,-216 960,-216 966,-216 972,-222 972,-228 972,-228 972,-240 972,-240 972,-246 966,-252 960,-252"/>
<text text-anchor="middle" x="922.5" y="-237" font-family="sans" font-size="10.00" fill="#000000">gencov_bedtools</text>
<text text-anchor="middle" x="922.5" y="-226" font-family="sans" font-size="10.00" fill="#000000">V: 0.4</text>
</g>
<!-- 12&#45;&gt;7 -->
<g id="edge14" class="edge">
<title>12&#45;&gt;7</title>
<path fill="none" stroke="#c0c0c0" stroke-width="2" d="M872.8813,-221.3762C829.1887,-210.26 764.9045,-193.905 714.8609,-181.1731"/>
<polygon fill="#c0c0c0" stroke="#c0c0c0" stroke-width="2" points="715.6066,-177.7514 705.0523,-178.6776 713.8806,-184.5353 715.6066,-177.7514"/>
</g>
<!-- 13 -->
<g id="node14" class="node">
<title>13</title>
<path fill="none" stroke="#568ad8" stroke-width="2" d="M155,-252C155,-252 34,-252 34,-252 28,-252 22,-246 22,-240 22,-240 22,-228 22,-228 22,-222 28,-216 34,-216 34,-216 155,-216 155,-216 161,-216 167,-222 167,-228 167,-228 167,-240 167,-240 167,-246 161,-252 155,-252"/>
<text text-anchor="middle" x="94.5" y="-231.5" font-family="sans" font-size="10.00" fill="#000000">proportion_heterozygosity</text>
</g>
<!-- 13&#45;&gt;8 -->
<g id="edge16" class="edge">
<title>13&#45;&gt;8</title>
<path fill="none" stroke="#c0c0c0" stroke-width="2" d="M111.4069,-215.8314C119.2813,-207.3694 128.792,-197.1489 137.4013,-187.8971"/>
<polygon fill="#c0c0c0" stroke="#c0c0c0" stroke-width="2" points="140.1153,-190.1183 144.3654,-180.4133 134.9908,-185.3497 140.1153,-190.1183"/>
</g>
<!-- 14 -->
<g id="node15" class="node">
<title>14</title>
<path fill="none" stroke="#56d8c9" stroke-width="2" d="M451.5,-324C451.5,-324 369.5,-324 369.5,-324 363.5,-324 357.5,-318 357.5,-312 357.5,-312 357.5,-300 357.5,-300 357.5,-294 363.5,-288 369.5,-288 369.5,-288 451.5,-288 451.5,-288 457.5,-288 463.5,-294 463.5,-300 463.5,-300 463.5,-312 463.5,-312 463.5,-318 457.5,-324 451.5,-324"/>
<text text-anchor="middle" x="410.5" y="-303.5" font-family="sans" font-size="10.00" fill="#000000">maf_convert_syns</text>
</g>
<!-- 14&#45;&gt;9 -->
<g id="edge17" class="edge">
<title>14&#45;&gt;9</title>
<path fill="none" stroke="#c0c0c0" stroke-width="2" d="M420.3413,-287.8314C424.6957,-279.7925 429.9098,-270.1666 434.7169,-261.2918"/>
<polygon fill="#c0c0c0" stroke="#c0c0c0" stroke-width="2" points="437.8408,-262.8732 439.5261,-252.4133 431.6857,-259.5392 437.8408,-262.8732"/>
</g>
<!-- 15 -->
<g id="node16" class="node">
<title>15</title>
<path fill="none" stroke="#80d856" stroke-width="2" d="M595,-324C595,-324 494,-324 494,-324 488,-324 482,-318 482,-312 482,-312 482,-300 482,-300 482,-294 488,-288 494,-288 494,-288 595,-288 595,-288 601,-288 607,-294 607,-300 607,-300 607,-312 607,-312 607,-318 601,-324 595,-324"/>
<text text-anchor="middle" x="544.5" y="-303.5" font-family="sans" font-size="10.00" fill="#000000">gencov_prepare_fasta</text>
</g>
<!-- 15&#45;&gt;9 -->
<g id="edge18" class="edge">
<title>15&#45;&gt;9</title>
<path fill="none" stroke="#c0c0c0" stroke-width="2" d="M520.5275,-287.8314C508.7139,-278.8779 494.3028,-267.9558 481.5565,-258.2955"/>
<polygon fill="#c0c0c0" stroke="#c0c0c0" stroke-width="2" points="483.5486,-255.4137 473.4648,-252.1628 479.3205,-260.9925 483.5486,-255.4137"/>
</g>
<!-- 15&#45;&gt;10 -->
<g id="edge23" class="edge">
<title>15&#45;&gt;10</title>
<path fill="none" stroke="#c0c0c0" stroke-width="2" d="M581.8466,-287.8314C601.3769,-278.3302 625.4641,-266.6121 646.1731,-256.5374"/>
<polygon fill="#c0c0c0" stroke="#c0c0c0" stroke-width="2" points="647.9607,-259.56 655.4219,-252.038 644.8984,-253.2654 647.9607,-259.56"/>
</g>
<!-- 15&#45;&gt;11 -->
<g id="edge28" class="edge">
<title>15&#45;&gt;11</title>
<path fill="none" stroke="#c0c0c0" stroke-width="2" d="M481.7879,-289.9314C434.4697,-277.8072 369.9627,-261.2787 323.3559,-249.3367"/>
<polygon fill="#c0c0c0" stroke="#c0c0c0" stroke-width="2" points="323.9553,-245.8773 313.3995,-246.7856 322.2178,-252.6583 323.9553,-245.8773"/>
</g>
<!-- 15&#45;&gt;12 -->
<g id="edge33" class="edge">
<title>15&#45;&gt;12</title>
<path fill="none" stroke="#c0c0c0" stroke-width="2" d="M607.1606,-289.846C609.9749,-289.2051 612.7646,-288.5865 615.5,-288 700.9613,-269.6771 800.7829,-252.9804 862.8292,-243.1509"/>
<polygon fill="#c0c0c0" stroke="#c0c0c0" stroke-width="2" points="863.4984,-246.5887 872.8314,-241.574 862.4083,-239.6741 863.4984,-246.5887"/>
</g>
<!-- 16 -->
<g id="node17" class="node">
<title>16</title>
<path fill="none" stroke="#d85656" stroke-width="2" d="M690.5,-396C690.5,-396 622.5,-396 622.5,-396 616.5,-396 610.5,-390 610.5,-384 610.5,-384 610.5,-372 610.5,-372 610.5,-366 616.5,-360 622.5,-360 622.5,-360 690.5,-360 690.5,-360 696.5,-360 702.5,-366 702.5,-372 702.5,-372 702.5,-384 702.5,-384 702.5,-390 696.5,-396 690.5,-396"/>
<text text-anchor="middle" x="656.5" y="-381" font-family="sans" font-size="10.00" fill="#000000">mismatch_bam</text>
<text text-anchor="middle" x="656.5" y="-370" font-family="sans" font-size="10.00" fill="#000000">ED: 0</text>
</g>
<!-- 16&#45;&gt;10 -->
<g id="edge19" class="edge">
<title>16&#45;&gt;10</title>
<path fill="none" stroke="#c0c0c0" stroke-width="2" d="M679.175,-359.9909C689.2888,-350.4972 700.1198,-337.9355 705.5,-324 713.1883,-304.086 709.1283,-280.1005 703.5855,-261.9001"/>
<polygon fill="#c0c0c0" stroke="#c0c0c0" stroke-width="2" points="706.8253,-260.5529 700.324,-252.1872 700.1894,-262.7812 706.8253,-260.5529"/>
</g>
<!-- 17 -->
<g id="node18" class="node">
<title>17</title>
<path fill="none" stroke="#566bd8" stroke-width="2" d="M684,-324C684,-324 637,-324 637,-324 631,-324 625,-318 625,-312 625,-312 625,-300 625,-300 625,-294 631,-288 637,-288 637,-288 684,-288 684,-288 690,-288 696,-294 696,-300 696,-300 696,-312 696,-312 696,-318 690,-324 684,-324"/>
<text text-anchor="middle" x="660.5" y="-309" font-family="sans" font-size="10.00" fill="#000000">index_bam</text>
<text text-anchor="middle" x="660.5" y="-298" font-family="sans" font-size="10.00" fill="#000000">ED: 0.0</text>
</g>
<!-- 16&#45;&gt;17 -->
<g id="edge38" class="edge">
<title>16&#45;&gt;17</title>
<path fill="none" stroke="#c0c0c0" stroke-width="2" d="M657.5094,-359.8314C657.9372,-352.131 658.4459,-342.9743 658.9213,-334.4166"/>
<polygon fill="#c0c0c0" stroke="#c0c0c0" stroke-width="2" points="662.4169,-334.592 659.477,-324.4133 655.4276,-334.2037 662.4169,-334.592"/>
</g>
<!-- 17&#45;&gt;10 -->
<g id="edge20" class="edge">
<title>17&#45;&gt;10</title>
<path fill="none" stroke="#c0c0c0" stroke-width="2" d="M668.575,-287.8314C672.1102,-279.8771 676.336,-270.369 680.2456,-261.5723"/>
<polygon fill="#c0c0c0" stroke="#c0c0c0" stroke-width="2" points="683.4532,-262.9729 684.3163,-252.4133 677.0565,-260.1299 683.4532,-262.9729"/>
</g>
<!-- 18 -->
<g id="node19" class="node">
<title>18</title>
<path fill="none" stroke="#d85656" stroke-width="2" d="M800.5,-396C800.5,-396 732.5,-396 732.5,-396 726.5,-396 720.5,-390 720.5,-384 720.5,-384 720.5,-372 720.5,-372 720.5,-366 726.5,-360 732.5,-360 732.5,-360 800.5,-360 800.5,-360 806.5,-360 812.5,-366 812.5,-372 812.5,-372 812.5,-384 812.5,-384 812.5,-390 806.5,-396 800.5,-396"/>
<text text-anchor="middle" x="766.5" y="-381" font-family="sans" font-size="10.00" fill="#000000">mismatch_bam</text>
<text text-anchor="middle" x="766.5" y="-370" font-family="sans" font-size="10.00" fill="#000000">ED: 0</text>
</g>
<!-- 18&#45;&gt;10 -->
<g id="edge21" class="edge">
<title>18&#45;&gt;10</title>
<path fill="none" stroke="#c0c0c0" stroke-width="2" d="M757.6885,-359.9922C748.7258,-341.7674 734.3635,-312.8149 721.5,-288 716.9684,-279.2581 711.924,-269.7809 707.3294,-261.2419"/>
<polygon fill="#c0c0c0" stroke="#c0c0c0" stroke-width="2" points="710.3982,-259.5587 702.566,-252.4237 704.2394,-262.8856 710.3982,-259.5587"/>
</g>
<!-- 19 -->
<g id="node20" class="node">
<title>19</title>
<path fill="none" stroke="#566bd8" stroke-width="2" d="M850,-324C850,-324 803,-324 803,-324 797,-324 791,-318 791,-312 791,-312 791,-300 791,-300 791,-294 797,-288 803,-288 803,-288 850,-288 850,-288 856,-288 862,-294 862,-300 862,-300 862,-312 862,-312 862,-318 856,-324 850,-324"/>
<text text-anchor="middle" x="826.5" y="-309" font-family="sans" font-size="10.00" fill="#000000">index_bam</text>
<text text-anchor="middle" x="826.5" y="-298" font-family="sans" font-size="10.00" fill="#000000">ED: 0.0</text>
</g>
<!-- 18&#45;&gt;19 -->
<g id="edge40" class="edge">
<title>18&#45;&gt;19</title>
<path fill="none" stroke="#c0c0c0" stroke-width="2" d="M781.6405,-359.8314C788.6217,-351.454 797.0391,-341.3531 804.6876,-332.1749"/>
<polygon fill="#c0c0c0" stroke="#c0c0c0" stroke-width="2" points="807.4425,-334.3362 811.1556,-324.4133 802.0649,-329.8548 807.4425,-334.3362"/>
</g>
<!-- 19&#45;&gt;10 -->
<g id="edge22" class="edge">
<title>19&#45;&gt;10</title>
<path fill="none" stroke="#c0c0c0" stroke-width="2" d="M792.6861,-287.8314C775.2293,-278.4516 753.7513,-266.9112 735.1648,-256.9244"/>
<polygon fill="#c0c0c0" stroke="#c0c0c0" stroke-width="2" points="736.7686,-253.8129 726.303,-252.1628 733.4554,-259.9792 736.7686,-253.8129"/>
</g>
<!-- 20 -->
<g id="node21" class="node">
<title>20</title>
<path fill="none" stroke="#d85656" stroke-width="2" d="M231.5,-396C231.5,-396 163.5,-396 163.5,-396 157.5,-396 151.5,-390 151.5,-384 151.5,-384 151.5,-372 151.5,-372 151.5,-366 157.5,-360 163.5,-360 163.5,-360 231.5,-360 231.5,-360 237.5,-360 243.5,-366 243.5,-372 243.5,-372 243.5,-384 243.5,-384 243.5,-390 237.5,-396 231.5,-396"/>
<text text-anchor="middle" x="197.5" y="-381" font-family="sans" font-size="10.00" fill="#000000">mismatch_bam</text>
<text text-anchor="middle" x="197.5" y="-370" font-family="sans" font-size="10.00" fill="#000000">ED: 2</text>
</g>
<!-- 20&#45;&gt;11 -->
<g id="edge24" class="edge">
<title>20&#45;&gt;11</title>
<path fill="none" stroke="#c0c0c0" stroke-width="2" d="M163.9003,-359.8076C150.9596,-350.8793 137.592,-338.8246 130.5,-324 123.5952,-309.5666 121.5642,-301.2722 130.5,-288 146.9862,-263.5131 176.6909,-250.1254 203.8518,-242.8082"/>
<polygon fill="#c0c0c0" stroke="#c0c0c0" stroke-width="2" points="204.8422,-246.1689 213.7142,-240.3777 203.1672,-239.3723 204.8422,-246.1689"/>
</g>
<!-- 21 -->
<g id="node22" class="node">
<title>21</title>
<path fill="none" stroke="#566bd8" stroke-width="2" d="M199,-324C199,-324 152,-324 152,-324 146,-324 140,-318 140,-312 140,-312 140,-300 140,-300 140,-294 146,-288 152,-288 152,-288 199,-288 199,-288 205,-288 211,-294 211,-300 211,-300 211,-312 211,-312 211,-318 205,-324 199,-324"/>
<text text-anchor="middle" x="175.5" y="-309" font-family="sans" font-size="10.00" fill="#000000">index_bam</text>
<text text-anchor="middle" x="175.5" y="-298" font-family="sans" font-size="10.00" fill="#000000">ED: 0.2</text>
</g>
<!-- 20&#45;&gt;21 -->
<g id="edge42" class="edge">
<title>20&#45;&gt;21</title>
<path fill="none" stroke="#c0c0c0" stroke-width="2" d="M191.9485,-359.8314C189.5697,-352.0463 186.7362,-342.7729 184.0967,-334.1347"/>
<polygon fill="#c0c0c0" stroke="#c0c0c0" stroke-width="2" points="187.3958,-332.954 181.1263,-324.4133 180.7013,-334.9996 187.3958,-332.954"/>
</g>
<!-- 21&#45;&gt;11 -->
<g id="edge25" class="edge">
<title>21&#45;&gt;11</title>
<path fill="none" stroke="#c0c0c0" stroke-width="2" d="M197.7061,-287.8314C208.545,-278.9632 221.7444,-268.1637 233.4678,-258.5718"/>
<polygon fill="#c0c0c0" stroke="#c0c0c0" stroke-width="2" points="235.7777,-261.2041 241.301,-252.1628 231.345,-255.7864 235.7777,-261.2041"/>
</g>
<!-- 22 -->
<g id="node23" class="node">
<title>22</title>
<path fill="none" stroke="#d85656" stroke-width="2" d="M341.5,-396C341.5,-396 273.5,-396 273.5,-396 267.5,-396 261.5,-390 261.5,-384 261.5,-384 261.5,-372 261.5,-372 261.5,-366 267.5,-360 273.5,-360 273.5,-360 341.5,-360 341.5,-360 347.5,-360 353.5,-366 353.5,-372 353.5,-372 353.5,-384 353.5,-384 353.5,-390 347.5,-396 341.5,-396"/>
<text text-anchor="middle" x="307.5" y="-381" font-family="sans" font-size="10.00" fill="#000000">mismatch_bam</text>
<text text-anchor="middle" x="307.5" y="-370" font-family="sans" font-size="10.00" fill="#000000">ED: 2</text>
</g>
<!-- 22&#45;&gt;11 -->
<g id="edge26" class="edge">
<title>22&#45;&gt;11</title>
<path fill="none" stroke="#c0c0c0" stroke-width="2" d="M284.825,-359.9909C274.7112,-350.4972 263.8802,-337.9355 258.5,-324 250.9144,-304.352 252.6866,-280.488 256.0739,-262.2714"/>
<polygon fill="#c0c0c0" stroke="#c0c0c0" stroke-width="2" points="259.5435,-262.7818 258.1965,-252.2729 252.6961,-261.3281 259.5435,-262.7818"/>
</g>
<!-- 23 -->
<g id="node24" class="node">
<title>23</title>
<path fill="none" stroke="#566bd8" stroke-width="2" d="M327,-324C327,-324 280,-324 280,-324 274,-324 268,-318 268,-312 268,-312 268,-300 268,-300 268,-294 274,-288 280,-288 280,-288 327,-288 327,-288 333,-288 339,-294 339,-300 339,-300 339,-312 339,-312 339,-318 333,-324 327,-324"/>
<text text-anchor="middle" x="303.5" y="-309" font-family="sans" font-size="10.00" fill="#000000">index_bam</text>
<text text-anchor="middle" x="303.5" y="-298" font-family="sans" font-size="10.00" fill="#000000">ED: 0.2</text>
</g>
<!-- 22&#45;&gt;23 -->
<g id="edge44" class="edge">
<title>22&#45;&gt;23</title>
<path fill="none" stroke="#c0c0c0" stroke-width="2" d="M306.4906,-359.8314C306.0628,-352.131 305.5541,-342.9743 305.0787,-334.4166"/>
<polygon fill="#c0c0c0" stroke="#c0c0c0" stroke-width="2" points="308.5724,-334.2037 304.523,-324.4133 301.5831,-334.592 308.5724,-334.2037"/>
</g>
<!-- 23&#45;&gt;11 -->
<g id="edge27" class="edge">
<title>23&#45;&gt;11</title>
<path fill="none" stroke="#c0c0c0" stroke-width="2" d="M293.4063,-287.8314C288.9403,-279.7925 283.5925,-270.1666 278.6621,-261.2918"/>
<polygon fill="#c0c0c0" stroke="#c0c0c0" stroke-width="2" points="281.6456,-259.4551 273.7296,-252.4133 275.5265,-262.8546 281.6456,-259.4551"/>
</g>
<!-- 24 -->
<g id="node25" class="node">
<title>24</title>
<path fill="none" stroke="#d85656" stroke-width="2" d="M924.5,-396C924.5,-396 856.5,-396 856.5,-396 850.5,-396 844.5,-390 844.5,-384 844.5,-384 844.5,-372 844.5,-372 844.5,-366 850.5,-360 856.5,-360 856.5,-360 924.5,-360 924.5,-360 930.5,-360 936.5,-366 936.5,-372 936.5,-372 936.5,-384 936.5,-384 936.5,-390 930.5,-396 924.5,-396"/>
<text text-anchor="middle" x="890.5" y="-381" font-family="sans" font-size="10.00" fill="#000000">mismatch_bam</text>
<text text-anchor="middle" x="890.5" y="-370" font-family="sans" font-size="10.00" fill="#000000">ED: 4</text>
</g>
<!-- 24&#45;&gt;12 -->
<g id="edge29" class="edge">
<title>24&#45;&gt;12</title>
<path fill="none" stroke="#c0c0c0" stroke-width="2" d="M894.5528,-359.7623C900.0349,-335.0928 909.8645,-290.8598 916.2838,-261.9731"/>
<polygon fill="#c0c0c0" stroke="#c0c0c0" stroke-width="2" points="919.7274,-262.6108 918.4801,-252.0896 912.894,-261.0922 919.7274,-262.6108"/>
</g>
<!-- 25 -->
<g id="node26" class="node">
<title>25</title>
<path fill="none" stroke="#566bd8" stroke-width="2" d="M978,-324C978,-324 931,-324 931,-324 925,-324 919,-318 919,-312 919,-312 919,-300 919,-300 919,-294 925,-288 931,-288 931,-288 978,-288 978,-288 984,-288 990,-294 990,-300 990,-300 990,-312 990,-312 990,-318 984,-324 978,-324"/>
<text text-anchor="middle" x="954.5" y="-309" font-family="sans" font-size="10.00" fill="#000000">index_bam</text>
<text text-anchor="middle" x="954.5" y="-298" font-family="sans" font-size="10.00" fill="#000000">ED: 0.4</text>
</g>
<!-- 24&#45;&gt;25 -->
<g id="edge46" class="edge">
<title>24&#45;&gt;25</title>
<path fill="none" stroke="#c0c0c0" stroke-width="2" d="M906.6499,-359.8314C914.1717,-351.3694 923.2565,-341.1489 931.4804,-331.8971"/>
<polygon fill="#c0c0c0" stroke="#c0c0c0" stroke-width="2" points="934.1049,-334.2127 938.1327,-324.4133 928.873,-329.5621 934.1049,-334.2127"/>
</g>
<!-- 25&#45;&gt;12 -->
<g id="edge30" class="edge">
<title>25&#45;&gt;12</title>
<path fill="none" stroke="#c0c0c0" stroke-width="2" d="M946.425,-287.8314C942.8898,-279.8771 938.664,-270.369 934.7544,-261.5723"/>
<polygon fill="#c0c0c0" stroke="#c0c0c0" stroke-width="2" points="937.9435,-260.1299 930.6837,-252.4133 931.5468,-262.9729 937.9435,-260.1299"/>
</g>
<!-- 26 -->
<g id="node27" class="node">
<title>26</title>
<path fill="none" stroke="#d85656" stroke-width="2" d="M1052.5,-396C1052.5,-396 984.5,-396 984.5,-396 978.5,-396 972.5,-390 972.5,-384 972.5,-384 972.5,-372 972.5,-372 972.5,-366 978.5,-360 984.5,-360 984.5,-360 1052.5,-360 1052.5,-360 1058.5,-360 1064.5,-366 1064.5,-372 1064.5,-372 1064.5,-384 1064.5,-384 1064.5,-390 1058.5,-396 1052.5,-396"/>
<text text-anchor="middle" x="1018.5" y="-381" font-family="sans" font-size="10.00" fill="#000000">mismatch_bam</text>
<text text-anchor="middle" x="1018.5" y="-370" font-family="sans" font-size="10.00" fill="#000000">ED: 4</text>
</g>
<!-- 26&#45;&gt;12 -->
<g id="edge31" class="edge">
<title>26&#45;&gt;12</title>
<path fill="none" stroke="#c0c0c0" stroke-width="2" d="M1018.4938,-359.9514C1017.6706,-340.644 1013.932,-309.8546 999.5,-288 991.5358,-275.9397 979.8735,-265.7636 968.0226,-257.6106"/>
<polygon fill="#c0c0c0" stroke="#c0c0c0" stroke-width="2" points="969.7064,-254.5312 959.4101,-252.0334 965.9015,-260.4068 969.7064,-254.5312"/>
</g>
<!-- 27 -->
<g id="node28" class="node">
<title>27</title>
<path fill="none" stroke="#566bd8" stroke-width="2" d="M1106,-324C1106,-324 1059,-324 1059,-324 1053,-324 1047,-318 1047,-312 1047,-312 1047,-300 1047,-300 1047,-294 1053,-288 1059,-288 1059,-288 1106,-288 1106,-288 1112,-288 1118,-294 1118,-300 1118,-300 1118,-312 1118,-312 1118,-318 1112,-324 1106,-324"/>
<text text-anchor="middle" x="1082.5" y="-309" font-family="sans" font-size="10.00" fill="#000000">index_bam</text>
<text text-anchor="middle" x="1082.5" y="-298" font-family="sans" font-size="10.00" fill="#000000">ED: 0.4</text>
</g>
<!-- 26&#45;&gt;27 -->
<g id="edge48" class="edge">
<title>26&#45;&gt;27</title>
<path fill="none" stroke="#c0c0c0" stroke-width="2" d="M1034.6499,-359.8314C1042.1717,-351.3694 1051.2565,-341.1489 1059.4804,-331.8971"/>
<polygon fill="#c0c0c0" stroke="#c0c0c0" stroke-width="2" points="1062.1049,-334.2127 1066.1327,-324.4133 1056.873,-329.5621 1062.1049,-334.2127"/>
</g>
<!-- 27&#45;&gt;12 -->
<g id="edge32" class="edge">
<title>27&#45;&gt;12</title>
<path fill="none" stroke="#c0c0c0" stroke-width="2" d="M1046.9908,-290.0209C1024.965,-280.1092 996.3417,-267.2288 972.0957,-256.3181"/>
<polygon fill="#c0c0c0" stroke="#c0c0c0" stroke-width="2" points="973.2528,-253.0007 962.6973,-252.0888 970.3802,-259.3842 973.2528,-253.0007"/>
</g>
<!-- 28 -->
<g id="node29" class="node">
<title>28</title>
<path fill="none" stroke="#56d8b9" stroke-width="2" d="M71,-324C71,-324 12,-324 12,-324 6,-324 0,-318 0,-312 0,-312 0,-300 0,-300 0,-294 6,-288 12,-288 12,-288 71,-288 71,-288 77,-288 83,-294 83,-300 83,-300 83,-312 83,-312 83,-318 77,-324 71,-324"/>
<text text-anchor="middle" x="41.5" y="-303.5" font-family="sans" font-size="10.00" fill="#000000">vcftools_filter</text>
</g>
<!-- 28&#45;&gt;13 -->
<g id="edge34" class="edge">
<title>28&#45;&gt;13</title>
<path fill="none" stroke="#c0c0c0" stroke-width="2" d="M54.8741,-287.8314C60.9162,-279.6232 68.1763,-269.7606 74.8221,-260.7323"/>
<polygon fill="#c0c0c0" stroke="#c0c0c0" stroke-width="2" points="77.8363,-262.5415 80.9458,-252.4133 72.1989,-258.3918 77.8363,-262.5415"/>
</g>
<!-- 29 -->
<g id="node30" class="node">
<title>29</title>
<path fill="none" stroke="#70d856" stroke-width="2" d="M434,-396C434,-396 387,-396 387,-396 381,-396 375,-390 375,-384 375,-384 375,-372 375,-372 375,-366 381,-360 387,-360 387,-360 434,-360 434,-360 440,-360 446,-366 446,-372 446,-372 446,-384 446,-384 446,-390 440,-396 434,-396"/>
<text text-anchor="middle" x="410.5" y="-375.5" font-family="sans" font-size="10.00" fill="#000000">lastal_syns</text>
</g>
<!-- 29&#45;&gt;14 -->
<g id="edge35" class="edge">
<title>29&#45;&gt;14</title>
<path fill="none" stroke="#c0c0c0" stroke-width="2" d="M410.5,-359.8314C410.5,-352.131 410.5,-342.9743 410.5,-334.4166"/>
<polygon fill="#c0c0c0" stroke="#c0c0c0" stroke-width="2" points="414.0001,-334.4132 410.5,-324.4133 407.0001,-334.4133 414.0001,-334.4132"/>
</g>
<!-- 30 -->
<g id="node31" class="node">
<title>30</title>
<path fill="none" stroke="#ced856" stroke-width="2" stroke-dasharray="5,2" d="M457.5,-540C457.5,-540 357.5,-540 357.5,-540 351.5,-540 345.5,-534 345.5,-528 345.5,-528 345.5,-516 345.5,-516 345.5,-510 351.5,-504 357.5,-504 357.5,-504 457.5,-504 457.5,-504 463.5,-504 469.5,-510 469.5,-516 469.5,-516 469.5,-528 469.5,-528 469.5,-534 463.5,-540 457.5,-540"/>
<text text-anchor="middle" x="407.5" y="-519.5" font-family="sans" font-size="10.00" fill="#000000">index_fasta_samtools</text>
</g>
<!-- 30&#45;&gt;15 -->
<g id="edge36" class="edge">
<title>30&#45;&gt;15</title>
<path fill="none" stroke="#c0c0c0" stroke-width="2" d="M430.6113,-503.9486C442.0937,-494.1738 455.593,-481.3784 465.5,-468 497.2268,-425.1564 521.7147,-367.5858 534.5464,-333.8673"/>
<polygon fill="#c0c0c0" stroke="#c0c0c0" stroke-width="2" points="537.9326,-334.804 538.1496,-324.2114 531.3743,-332.3567 537.9326,-334.804"/>
</g>
<!-- 37 -->
<g id="node38" class="node">
<title>37</title>
<path fill="none" stroke="#56d892" stroke-width="2" d="M223.5,-468C223.5,-468 155.5,-468 155.5,-468 149.5,-468 143.5,-462 143.5,-456 143.5,-456 143.5,-444 143.5,-444 143.5,-438 149.5,-432 155.5,-432 155.5,-432 223.5,-432 223.5,-432 229.5,-432 235.5,-438 235.5,-444 235.5,-444 235.5,-456 235.5,-456 235.5,-462 229.5,-468 223.5,-468"/>
<text text-anchor="middle" x="189.5" y="-447.5" font-family="sans" font-size="10.00" fill="#000000">freebayes_prep</text>
</g>
<!-- 30&#45;&gt;37 -->
<g id="edge58" class="edge">
<title>30&#45;&gt;37</title>
<path fill="none" stroke="#c0c0c0" stroke-width="2" d="M352.7708,-503.9243C319.9399,-493.0811 278.2901,-479.3252 245.2745,-468.4209"/>
<polygon fill="#c0c0c0" stroke="#c0c0c0" stroke-width="2" points="246.3598,-465.0935 235.7666,-465.2807 244.1644,-471.7403 246.3598,-465.0935"/>
</g>
<!-- 31 -->
<g id="node32" class="node">
<title>31</title>
<path fill="none" stroke="#d89c56" stroke-width="2" d="M640.5,-468C640.5,-468 554.5,-468 554.5,-468 548.5,-468 542.5,-462 542.5,-456 542.5,-456 542.5,-444 542.5,-444 542.5,-438 548.5,-432 554.5,-432 554.5,-432 640.5,-432 640.5,-432 646.5,-432 652.5,-438 652.5,-444 652.5,-444 652.5,-456 652.5,-456 652.5,-462 646.5,-468 640.5,-468"/>
<text text-anchor="middle" x="597.5" y="-447.5" font-family="sans" font-size="10.00" fill="#000000">remove_duplicates</text>
</g>
<!-- 31&#45;&gt;16 -->
<g id="edge37" class="edge">
<title>31&#45;&gt;16</title>
<path fill="none" stroke="#c0c0c0" stroke-width="2" d="M612.3882,-431.8314C619.253,-423.454 627.5301,-413.3531 635.0511,-404.1749"/>
<polygon fill="#c0c0c0" stroke="#c0c0c0" stroke-width="2" points="637.7803,-406.3665 641.4114,-396.4133 632.3659,-401.9297 637.7803,-406.3665"/>
</g>
<!-- 31&#45;&gt;20 -->
<g id="edge41" class="edge">
<title>31&#45;&gt;20</title>
<path fill="none" stroke="#c0c0c0" stroke-width="2" d="M542.4967,-442.4923C463.6064,-431.5461 321.223,-411.0839 253.3964,-395.9558"/>
<polygon fill="#c0c0c0" stroke="#c0c0c0" stroke-width="2" points="254.0916,-392.5242 243.5589,-393.6702 252.5073,-399.3425 254.0916,-392.5242"/>
</g>
<!-- 31&#45;&gt;24 -->
<g id="edge45" class="edge">
<title>31&#45;&gt;24</title>
<path fill="none" stroke="#c0c0c0" stroke-width="2" d="M652.803,-436.9708C698.1814,-426.2071 764.0761,-410.4104 821.5,-396 825.6202,-394.9661 829.8754,-393.8859 834.1555,-392.7905"/>
<polygon fill="#c0c0c0" stroke="#c0c0c0" stroke-width="2" points="835.324,-396.1039 844.1358,-390.2215 833.5789,-389.3249 835.324,-396.1039"/>
</g>
<!-- 33 -->
<g id="node34" class="node">
<title>33</title>
<path fill="none" stroke="#56a2d8" stroke-width="2" d="M121,-396C121,-396 38,-396 38,-396 32,-396 26,-390 26,-384 26,-384 26,-372 26,-372 26,-366 32,-360 38,-360 38,-360 121,-360 121,-360 127,-360 133,-366 133,-372 133,-372 133,-384 133,-384 133,-390 127,-396 121,-396"/>
<text text-anchor="middle" x="79.5" y="-375.5" font-family="sans" font-size="10.00" fill="#000000">freebayes_parallel</text>
</g>
<!-- 31&#45;&gt;33 -->
<g id="edge54" class="edge">
<title>31&#45;&gt;33</title>
<path fill="none" stroke="#c0c0c0" stroke-width="2" d="M542.3067,-442.1663C518.6705,-438.8913 490.7486,-435.1281 465.5,-432 325.3712,-414.6394 285.974,-423.5169 143.3117,-395.9726"/>
<polygon fill="#c0c0c0" stroke="#c0c0c0" stroke-width="2" points="143.7979,-392.5014 133.3119,-394.0155 142.4534,-399.3711 143.7979,-392.5014"/>
</g>
<!-- 32 -->
<g id="node33" class="node">
<title>32</title>
<path fill="none" stroke="#d89c56" stroke-width="2" d="M795.5,-468C795.5,-468 709.5,-468 709.5,-468 703.5,-468 697.5,-462 697.5,-456 697.5,-456 697.5,-444 697.5,-444 697.5,-438 703.5,-432 709.5,-432 709.5,-432 795.5,-432 795.5,-432 801.5,-432 807.5,-438 807.5,-444 807.5,-444 807.5,-456 807.5,-456 807.5,-462 801.5,-468 795.5,-468"/>
<text text-anchor="middle" x="752.5" y="-447.5" font-family="sans" font-size="10.00" fill="#000000">remove_duplicates</text>
</g>
<!-- 32&#45;&gt;18 -->
<g id="edge39" class="edge">
<title>32&#45;&gt;18</title>
<path fill="none" stroke="#c0c0c0" stroke-width="2" d="M756.0328,-431.8314C757.5301,-424.131 759.3105,-414.9743 760.9745,-406.4166"/>
<polygon fill="#c0c0c0" stroke="#c0c0c0" stroke-width="2" points="764.4465,-406.8975 762.9196,-396.4133 757.5752,-405.5614 764.4465,-406.8975"/>
</g>
<!-- 32&#45;&gt;22 -->
<g id="edge43" class="edge">
<title>32&#45;&gt;22</title>
<path fill="none" stroke="#c0c0c0" stroke-width="2" d="M697.2764,-438.3947C685.4978,-436.1108 673.1097,-433.8516 661.5,-432 530.629,-411.1279 495.0865,-423.7523 365.5,-396 364.7655,-395.8427 364.0269,-395.6802 363.285,-395.5129"/>
<polygon fill="#c0c0c0" stroke="#c0c0c0" stroke-width="2" points="364.0704,-392.1018 353.5229,-393.1027 362.3924,-398.8977 364.0704,-392.1018"/>
</g>
<!-- 32&#45;&gt;26 -->
<g id="edge47" class="edge">
<title>32&#45;&gt;26</title>
<path fill="none" stroke="#c0c0c0" stroke-width="2" d="M807.6154,-435.0816C852.9822,-422.8018 917.0164,-405.4693 962.5974,-393.1315"/>
<polygon fill="#c0c0c0" stroke="#c0c0c0" stroke-width="2" points="963.5801,-396.4916 972.3183,-390.5003 961.7511,-389.7347 963.5801,-396.4916"/>
</g>
<!-- 32&#45;&gt;33 -->
<g id="edge55" class="edge">
<title>32&#45;&gt;33</title>
<path fill="none" stroke="#c0c0c0" stroke-width="2" d="M697.3439,-437.9331C685.5608,-435.6803 673.1538,-433.5505 661.5,-432 435.5442,-401.9379 372.0295,-435.0156 143.2454,-395.8975"/>
<polygon fill="#c0c0c0" stroke="#c0c0c0" stroke-width="2" points="143.7352,-392.4302 133.2837,-394.1668 142.537,-399.3269 143.7352,-392.4302"/>
</g>
<!-- 33&#45;&gt;28 -->
<g id="edge49" class="edge">
<title>33&#45;&gt;28</title>
<path fill="none" stroke="#c0c0c0" stroke-width="2" d="M69.911,-359.8314C65.6683,-351.7925 60.5879,-342.1666 55.904,-333.2918"/>
<polygon fill="#c0c0c0" stroke="#c0c0c0" stroke-width="2" points="58.9811,-331.6235 51.2181,-324.4133 52.7904,-334.8908 58.9811,-331.6235"/>
</g>
<!-- 34 -->
<g id="node35" class="node">
<title>34</title>
<path fill="none" stroke="#56d873" stroke-width="2" stroke-dasharray="5,2" d="M445,-468C445,-468 376,-468 376,-468 370,-468 364,-462 364,-456 364,-456 364,-444 364,-444 364,-438 370,-432 376,-432 376,-432 445,-432 445,-432 451,-432 457,-438 457,-444 457,-444 457,-456 457,-456 457,-462 451,-468 445,-468"/>
<text text-anchor="middle" x="410.5" y="-447.5" font-family="sans" font-size="10.00" fill="#000000">fasta_formatter</text>
</g>
<!-- 34&#45;&gt;29 -->
<g id="edge50" class="edge">
<title>34&#45;&gt;29</title>
<path fill="none" stroke="#c0c0c0" stroke-width="2" d="M410.5,-431.8314C410.5,-424.131 410.5,-414.9743 410.5,-406.4166"/>
<polygon fill="#c0c0c0" stroke="#c0c0c0" stroke-width="2" points="414.0001,-406.4132 410.5,-396.4133 407.0001,-406.4133 414.0001,-406.4132"/>
</g>
<!-- 35 -->
<g id="node36" class="node">
<title>35</title>
<path fill="none" stroke="#56d0d8" stroke-width="2" d="M616.5,-540C616.5,-540 578.5,-540 578.5,-540 572.5,-540 566.5,-534 566.5,-528 566.5,-528 566.5,-516 566.5,-516 566.5,-510 572.5,-504 578.5,-504 578.5,-504 616.5,-504 616.5,-504 622.5,-504 628.5,-510 628.5,-516 628.5,-516 628.5,-528 628.5,-528 628.5,-534 622.5,-540 616.5,-540"/>
<text text-anchor="middle" x="597.5" y="-519.5" font-family="sans" font-size="10.00" fill="#000000">sort_bam</text>
</g>
<!-- 35&#45;&gt;31 -->
<g id="edge51" class="edge">
<title>35&#45;&gt;31</title>
<path fill="none" stroke="#c0c0c0" stroke-width="2" d="M597.5,-503.8314C597.5,-496.131 597.5,-486.9743 597.5,-478.4166"/>
<polygon fill="#c0c0c0" stroke="#c0c0c0" stroke-width="2" points="601.0001,-478.4132 597.5,-468.4133 594.0001,-478.4133 601.0001,-478.4132"/>
</g>
<!-- 36 -->
<g id="node37" class="node">
<title>36</title>
<path fill="none" stroke="#56d0d8" stroke-width="2" d="M771.5,-540C771.5,-540 733.5,-540 733.5,-540 727.5,-540 721.5,-534 721.5,-528 721.5,-528 721.5,-516 721.5,-516 721.5,-510 727.5,-504 733.5,-504 733.5,-504 771.5,-504 771.5,-504 777.5,-504 783.5,-510 783.5,-516 783.5,-516 783.5,-528 783.5,-528 783.5,-534 777.5,-540 771.5,-540"/>
<text text-anchor="middle" x="752.5" y="-519.5" font-family="sans" font-size="10.00" fill="#000000">sort_bam</text>
</g>
<!-- 36&#45;&gt;32 -->
<g id="edge52" class="edge">
<title>36&#45;&gt;32</title>
<path fill="none" stroke="#c0c0c0" stroke-width="2" d="M752.5,-503.8314C752.5,-496.131 752.5,-486.9743 752.5,-478.4166"/>
<polygon fill="#c0c0c0" stroke="#c0c0c0" stroke-width="2" points="756.0001,-478.4132 752.5,-468.4133 749.0001,-478.4133 756.0001,-478.4132"/>
</g>
<!-- 37&#45;&gt;33 -->
<g id="edge53" class="edge">
<title>37&#45;&gt;33</title>
<path fill="none" stroke="#c0c0c0" stroke-width="2" d="M161.7424,-431.8314C147.803,-422.7074 130.7402,-411.539 115.7769,-401.7449"/>
<polygon fill="#c0c0c0" stroke="#c0c0c0" stroke-width="2" points="117.5326,-398.711 107.2488,-396.1628 113.699,-404.5679 117.5326,-398.711"/>
</g>
<!-- 38 -->
<g id="node39" class="node">
<title>38</title>
<path fill="none" stroke="#d87d56" stroke-width="2" d="M654,-612C654,-612 541,-612 541,-612 535,-612 529,-606 529,-600 529,-600 529,-588 529,-588 529,-582 535,-576 541,-576 541,-576 654,-576 654,-576 660,-576 666,-582 666,-588 666,-588 666,-600 666,-600 666,-606 660,-612 654,-612"/>
<text text-anchor="middle" x="597.5" y="-597" font-family="sans" font-size="10.00" fill="#000000">map</text>
<text text-anchor="middle" x="597.5" y="-586" font-family="sans" font-size="10.00" fill="#000000">S: QL&#45;1681&#45;19_S46_L006</text>
</g>
<!-- 38&#45;&gt;35 -->
<g id="edge56" class="edge">
<title>38&#45;&gt;35</title>
<path fill="none" stroke="#c0c0c0" stroke-width="2" d="M597.5,-575.8314C597.5,-568.131 597.5,-558.9743 597.5,-550.4166"/>
<polygon fill="#c0c0c0" stroke="#c0c0c0" stroke-width="2" points="601.0001,-550.4132 597.5,-540.4133 594.0001,-550.4133 601.0001,-550.4132"/>
</g>
<!-- 39 -->
<g id="node40" class="node">
<title>39</title>
<path fill="none" stroke="#d87d56" stroke-width="2" d="M809,-612C809,-612 696,-612 696,-612 690,-612 684,-606 684,-600 684,-600 684,-588 684,-588 684,-582 690,-576 696,-576 696,-576 809,-576 809,-576 815,-576 821,-582 821,-588 821,-588 821,-600 821,-600 821,-606 815,-612 809,-612"/>
<text text-anchor="middle" x="752.5" y="-597" font-family="sans" font-size="10.00" fill="#000000">map</text>
<text text-anchor="middle" x="752.5" y="-586" font-family="sans" font-size="10.00" fill="#000000">S: QL&#45;1681&#45;21_S47_L006</text>
</g>
<!-- 39&#45;&gt;36 -->
<g id="edge57" class="edge">
<title>39&#45;&gt;36</title>
<path fill="none" stroke="#c0c0c0" stroke-width="2" d="M752.5,-575.8314C752.5,-568.131 752.5,-558.9743 752.5,-550.4166"/>
<polygon fill="#c0c0c0" stroke="#c0c0c0" stroke-width="2" points="756.0001,-550.4132 752.5,-540.4133 749.0001,-550.4133 756.0001,-550.4132"/>
</g>
<!-- 40 -->
<g id="node41" class="node">
<title>40</title>
<path fill="none" stroke="#d8c356" stroke-width="2" stroke-dasharray="5,2" d="M712,-684C712,-684 637,-684 637,-684 631,-684 625,-678 625,-672 625,-672 625,-660 625,-660 625,-654 631,-648 637,-648 637,-648 712,-648 712,-648 718,-648 724,-654 724,-660 724,-660 724,-672 724,-672 724,-678 718,-684 712,-684"/>
<text text-anchor="middle" x="674.5" y="-663.5" font-family="sans" font-size="10.00" fill="#000000">index_fasta_bwa</text>
</g>
<!-- 40&#45;&gt;38 -->
<g id="edge59" class="edge">
<title>40&#45;&gt;38</title>
<path fill="none" stroke="#c0c0c0" stroke-width="2" d="M655.0696,-647.8314C645.768,-639.1337 634.4796,-628.5783 624.3714,-619.1265"/>
<polygon fill="#c0c0c0" stroke="#c0c0c0" stroke-width="2" points="626.6189,-616.4363 616.9241,-612.1628 621.8379,-621.5493 626.6189,-616.4363"/>
</g>
<!-- 40&#45;&gt;39 -->
<g id="edge60" class="edge">
<title>40&#45;&gt;39</title>
<path fill="none" stroke="#c0c0c0" stroke-width="2" d="M694.1827,-647.8314C703.6051,-639.1337 715.0401,-628.5783 725.2796,-619.1265"/>
<polygon fill="#c0c0c0" stroke="#c0c0c0" stroke-width="2" points="727.8495,-621.5175 732.8236,-612.1628 723.1016,-616.3738 727.8495,-621.5175"/>
</g>
</g>
</svg>
